<?xml version="1.0" encoding="UTF-8" standalone="no"?>
<svg
   viewBox="0 0 2030 483"
   version="1.1"
   id="svg181"
   sodipodi:docname="logo-f01.svg"
   inkscape:version="1.2 (dc2aedaf03, 2022-05-15)"
   xmlns:inkscape="http://www.inkscape.org/namespaces/inkscape"
   xmlns:sodipodi="http://sodipodi.sourceforge.net/DTD/sodipodi-0.dtd"
   xmlns="http://www.w3.org/2000/svg"
   xmlns:svg="http://www.w3.org/2000/svg">
  <defs
     id="defs185" />
  <sodipodi:namedview
     id="namedview183"
     pagecolor="#ffffff"
     bordercolor="#666666"
     borderopacity="1.0"
     inkscape:showpageshadow="2"
     inkscape:pageopacity="0.0"
     inkscape:pagecheckerboard="0"
     inkscape:deskcolor="#d1d1d1"
     showgrid="false"
     inkscape:zoom="0.74334975"
     inkscape:cx="1016.3453"
     inkscape:cy="242.14712"
     inkscape:window-width="1920"
     inkscape:window-height="986"
     inkscape:window-x="-11"
     inkscape:window-y="-11"
     inkscape:window-maximized="1"
     inkscape:current-layer="svg181" />
  <path
     id="path75"
     style="display:inline;fill:#000000;fill-opacity:1;fill-rule:nonzero;stroke:none;stroke-width:0.0497156"
     d="M 194.99559,8.5283991 C 196.86547,27.577008 191.81954,33.31067 183.35298,53.384677 168.69641,33.285415 154.28864,31.14337 129.24543,27.167945 c -1.38512,3.884498 -4.08322,10.759684 -4.8744,20.917847 -0.91933,11.774559 1.82754,37.435961 4.78191,48.164942 1.27508,4.611886 2.72185,8.370346 6.90288,19.761016 -26.69795,-13.93155 -40.66388,-6.66794 -55.702126,-11.74461 -5.29701,-1.79323 -6.480376,-1.84358 -18.69249,-5.440156 l -0.233124,4.717926 c -0.441551,8.90995 1.673814,28.37164 2.145969,31.41565 2.67886,17.07598 10.01743,26.57089 20.782242,39.40578 -37.44462,4.35435 -63.800642,26.2779 -74.234716,53.1768 l -1.5819483,4.08165 c 5.4194513,1.27244 14.7320213,3.08318 26.1103253,9.87329 8.331646,4.98218 16.319591,11.80413 25.546125,15.98108 -13.615902,8.70244 -24.902786,19.62671 -32.25296,31.32367 -5.167955,8.22744 -6.40657,15.14534 -11.672506,27.70942 4.677481,3.47444 6.106045,5.02462 18.605957,5.73283 4.015613,0.22097 8.172067,0.45585 11.077936,1.73511 14.394332,6.34071 22.180829,7.88666 33.21572,7.81651 -8.907478,14.89173 -12.684269,32.79072 -10.421765,50.19499 l 0.71683,5.5252 c 4.978477,-2.93009 5.940453,-3.53787 8.399153,-4.8027 -4.389394,10.64528 -6.639171,25.94263 -3.788578,38.07528 1.360744,5.79839 4.205457,16.25227 5.774627,21.97506 8.006684,-0.29736 7.197415,-0.25902 7.558992,-0.28492 14.835677,-1.52604 22.812537,-6.59458 34.129247,-12.60818 8.06143,-4.27839 16.33111,-8.67686 23.55895,-14.47328 0.0991,20.55036 1.72305,25.24058 -6.16712,47.4481 5.24767,0.24769 6.27715,0.31736 8.49708,0.31736 15.94523,0 30.66045,-4.95641 43.74793,-13.18404 1.09158,5.50106 2.81492,11.55663 5.93509,16.58883 1.12101,1.78501 8.74116,12.12589 14.47962,16.39827 l 2.97335,2.21605 c 10.94307,-15.91724 16.94003,-16.25461 31.16164,-38.48089 5.49331,8.72106 12.56282,16.51782 21.10227,23.67666 0.96783,0.80971 10.18226,5.54506 10.18226,5.54506 5.78817,-26.41227 16.5092,-33.74157 22.1933,-60.95618 6.92109,6.36678 14.27821,11.96162 20.32927,16.75288 5.7867,4.57551 12.34033,9.76593 19.44635,12.4108 23.24006,8.66443 41.87745,2.14591 50.2148,1.05732 0.71672,-4.80329 0.68737,-4.44827 0.82834,-7.22702 1.096,-20.94939 -1.34268,-17.13985 -10.91417,-44.01331 19.3553,3.72181 32.86089,-0.52446 69.45432,-8.36147 -21.28563,-16.24598 -22.68268,-17.06209 -24.86001,-19.98022 -8.93795,-11.99945 -2.43886,-27.53224 -23.09414,-49.53689 2.58736,-0.0429 5.13738,-0.20371 7.54674,-0.35529 17.60859,-1.12709 40.97203,-0.15244 70.32594,-33.88679 0,0 2.35818,-3.01235 5.77345,-7.16439 l -4.31556,-2.08884 c -6.9039,-3.33497 -19.01134,-11.53686 -28.97898,-21.13893 18.75257,-10.71482 33.43671,-28.69661 40.70242,-50.06934 l 1.15979,-3.39864 c -20.81436,-8.57517 -28.03255,-10.29054 -51.35846,-14.86009 10.40969,-15.20288 16.18502,-36.57032 15.71187,-49.90631 l -0.14661,-4.14452 c -12.41952,1.73976 -24.13617,3.62022 -35.40343,2.29039 -10.05438,-1.17749 -18.61335,-1.62616 -28.97929,1.05054 13.81782,-31.17066 -1.52022,-31.85336 15.31378,-67.854187 l -4.80679,-0.818154 C 381.92292,60.128302 359.14136,66.083858 341.7801,79.394273 342.61864,49.313684 330.58555,31.693572 311.63051,9.1193701 l -2.55069,4.5968049 c -8.47343,15.285284 -17.86511,21.11964 -26.0187,29.211979 -7.76684,-9.39559 -18.30666,-18.669819 -30.12484,-25.494226 -6.0641,5.091776 -12.10272,10.931231 -16.74325,17.346467 -8.76742,-10.698598 -19.41564,-17.17492 -31.94106,-22.549379 -0.95586,-0.409333 -9.21394,-3.0914099 -9.25646,-3.7026709 z m 7.67568,11.0221579 c 26.56973,11.405805 42.21452,29.439918 51.65037,83.701303 -0.0316,0.12115 -0.0622,0.23744 -0.0928,0.35365 l 0.15969,0.0429 c 1.71006,9.94927 2.72841,20.23406 -0.0622,29.94938 l -0.2028,0.0275 c 0.0209,0.14543 0.0416,0.28392 0.0622,0.42932 -1.96159,6.55198 -5.57211,12.64592 -9.34947,18.37443 -2.01102,-0.51855 -3.71512,0.44881 -5.08125,2.12025 -0.2164,-0.1136 -1.09155,-0.70985 -1.27502,-0.82957 -2.7298,-25.06261 -5.93515,-45.80097 -16.03221,-68.218843 -0.38079,-0.843463 -1.61323,-0.38926 -1.37988,0.509865 6.20405,24.538468 5.40082,45.443118 3.58606,71.981138 -1.42184,2.69053 -1.96705,2.68278 -2.45198,2.84796 -2.31679,0.82223 -4.20593,2.17057 -5.51184,4.61998 -19.04045,-15.75349 -25.78544,-41.15185 -30.12484,-65.815376 -4.17514,-23.725949 -2.39153,-30.566222 6.86048,-50.937994 4.21186,-9.269345 8.54601,-18.811633 9.2447,-29.156668 z M 312.709,21.95996 c 27.54461,34.273213 25.66182,57.187407 13.23639,103.56408 -1.55746,5.81039 -3.16494,11.82212 -6.20588,16.81644 -6.13623,10.07668 -21.90372,20.22168 -32.32569,25.24031 -0.99911,-0.39852 -1.44665,-0.98692 -1.74072,-1.75273 13.20537,-24.26493 19.94294,-51.5579 19.87544,-78.316247 0,-0.823361 -1.15896,-0.904116 -1.2813,-0.09578 -3.92343,26.456747 -14.55422,51.267107 -30.00882,71.368337 -1.42339,-2.51301 -4.2427,-2.34939 -6.60355,-2.93786 -4.26032,-1.06333 -8.16483,-2.41752 -9.14053,-7.27801 -1.81429,-9.08768 6.24663,-12.51919 4.59835,-34.28414 -0.20908,-2.79848 -2.03647,-8.06204 -1.33723,-10.65843 17.65692,-65.449988 31.16303,-50.701227 50.93354,-81.665831 z m -59.025,4.62214 c 4.48047,2.934837 15.17846,10.562397 24.37517,21.872499 -9.23928,11.350224 -14.989,25.277297 -19.35545,39.426021 C 255.09294,71.443612 250.01128,54.9909 240.79689,41.044239 244.64765,35.164393 250.62987,29.365383 253.684,26.5821 Z m -119.58927,8.961057 c 26.39161,4.222951 34.44158,8.85019 46.10716,26.171214 -4.37045,13.406172 -3.49352,23.938673 -0.79607,39.269419 2.83253,16.09702 6.64473,32.66046 14.30312,47.12948 2.39001,4.51184 4.40703,9.7971 7.27626,13.95438 -1.25014,-1.81541 -4.23684,-3.08783 -5.75612,-4.89112 -4.38945,-5.20947 -7.4803,-12.29052 -10.82121,-18.21481 -4.94751,-8.77807 -10.12208,-18.305 -14.91555,-27.41197 -0.93699,-1.78665 -2.87524,-7.62605 -4.83784,-7.77761 -0.27442,4.8544 3.20739,9.72072 4.78192,14.13845 10.2378,28.73999 19.80913,38.36717 23.65792,56.6831 -2.69109,-5.19566 -6.55311,-9.29112 -9.62339,-14.11956 -7.89065,-12.42446 -16.49825,-22.86077 -30.28537,-33.424 -1.40425,-1.07702 -6.6036,-3.57648 -7.1736,-5.1268 -7.64524,-20.82795 -8.64955,-23.359116 -9.85715,-27.728546 -2.71657,-9.855216 -5.37703,-34.677986 -4.52516,-45.497839 0.34357,-4.465405 1.1709,-8.875229 2.46508,-13.153788 z m 255.60742,34.667706 c 2.52964,-0.03777 5.05814,0.0653 7.57144,0.308154 -4.27187,10.996688 -5.43704,20.564447 -5.38266,31.460083 0.0473,9.93131 -0.22058,16.02722 -8.81621,33.57753 -0.71694,1.46846 -7.94462,3.38534 -9.58129,4.15717 -9.91334,4.69731 -19.50207,10.51361 -28.15207,17.44293 -18.7041,14.9812 -20.50689,24.07724 -29.15691,30.43679 2.1524,-13.44203 13.14971,-27.48064 20.86836,-38.15172 5.74407,-7.93655 11.65437,-14.91793 17.66876,-21.02534 1.06615,-1.08155 5.30357,-4.0119 4.89207,-5.62682 -0.56412,-0.10819 -0.79654,0.17727 -1.29998,0.41252 -5.69421,2.63276 -11.22419,7.80294 -15.96917,11.87922 -8.24606,7.09514 -15.74402,15.09415 -22.75755,23.47387 -1.24431,1.48769 -2.62936,3.29093 -4.17504,4.43154 3.10847,-6.31071 7.13101,-11.4755 10.80786,-17.21569 3.44067,-5.36752 5.10092,-12.1136 6.74449,-18.24648 3.07227,-11.46897 6.5408,-24.42973 8.06842,-37.810676 13.18964,-12.256335 30.96226,-19.249456 48.66948,-19.503323 z M 68.681162,108.65185 c 3.126579,0.84864 6.105913,1.63863 9.41643,2.75195 9.514672,3.21574 19.483361,2.27202 28.697638,3.1712 27.63002,2.70282 64.68317,28.90523 79.61186,68.53226 -1.58172,1.34016 -1.93161,3.75982 -0.6873,5.53689 -0.14087,0.90565 -2.22004,1.67748 -4.08275,2.52515 -25.01771,-7.36595 -48.91586,-20.69622 -69.25117,-38.98712 -0.7599,-0.67642 -1.81445,0.39312 -1.16466,1.19063 15.80401,19.53751 35.64889,36.1073 58.2225,48.18874 -1.45266,2.36154 -1.83326,4.13289 -1.95654,6.43682 -17.68608,2.12764 -30.78815,0.32877 -41.04351,-5.60698 -18.26314,-10.58174 -33.945228,-29.22798 -44.152711,-42.33612 -6.326519,-8.1259 -9.993047,-16.47993 -11.531351,-26.28952 -0.349869,-2.26001 -1.839118,-15.9691 -2.07841,-25.1139 z m 381.169478,28.98579 c -0.60818,10.91221 -5.94092,31.06419 -17.663,45.62719 -9.83352,12.22056 -29.21916,27.58163 -51.26932,36.87262 -11.8452,4.98808 -22.84332,5.83619 -35.66799,2.76045 -4.54999,-1.09508 -9.2447,-2.41145 -13.27876,-4.57548 0.25717,-0.5007 0.79607,-1.13902 0.81512,-2.43714 33.63705,-11.79828 45.25548,-20.12668 63.86847,-39.32258 0.68008,-0.69609 -0.23417,-1.80502 -1.01253,-1.22263 -21.95241,16.37339 -33.65107,21.70335 -68.98647,27.75947 -0.79218,-1.94279 -1.12221,-5.17663 -3.68419,-7.5876 12.62212,-25.55736 38.4637,-43.76078 63.95956,-53.42457 12.38955,-4.67081 20.82592,-4.80324 33.86486,-3.27113 9.80917,1.15723 19.5566,0.11359 29.05425,-1.1786 z m -196.19163,20.69002 c 3.20669,-0.25309 6.66379,0.88005 8.56467,3.55667 1.78348,2.51917 2.06001,6.11518 4.39588,8.0958 4.29674,3.63249 11.50121,-1.12677 16.08644,2.10705 3.09506,2.17755 3.5986,7.16424 6.93358,8.93132 2.82671,1.49951 6.30284,-0.0693 9.4289,0.54454 3.15088,0.61258 5.55446,3.42924 6.6578,6.54288 1.09751,3.10766 1.10909,6.50018 1.06652,9.80533 22.24141,-0.96927 8.83372,16.53746 14.19249,24.59383 1.28683,1.93667 3.41443,3.13321 4.71498,5.06383 1.76532,2.62573 1.58036,6.47489 -0.42315,8.9106 -1.30032,1.56955 -3.20757,2.54485 -4.36503,4.22848 -4.26178,6.18344 4.60419,14.85437 1.79515,21.86694 -1.7409,4.3543 -7.68765,6.99377 -6.98208,11.6451 0.28753,1.9306 1.7466,3.47479 2.15177,5.37978 0.72859,3.462 -2.16372,6.58802 -5.09439,8.43068 -2.93088,1.84115 -6.37599,3.37339 -7.92161,6.53868 -2.07708,4.25854 -0.2509,10.58754 -4.08234,13.25821 -2.65492,1.85464 -6.45528,0.5325 -9.29349,2.07653 -4.2911,2.33507 -4.37212,9.98716 -9.07895,11.21559 -3.06007,0.79613 -6.07019,-1.83665 -9.22123,-1.63963 -4.93501,0.30983 -7.3267,6.99361 -12.09537,8.32225 -4.04007,1.1204 -8.03146,-1.99341 -12.21224,-2.27212 -6.34516,-0.42933 -12.63561,5.66458 -18.45896,3.01966 -3.60513,-1.63369 -5.48709,-6.17127 -9.23309,-7.4361 -2.91745,-0.99518 -6.15424,0.31522 -9.16438,-0.3309 -6.14337,-1.30274 -8.86013,-9.85373 -15.00809,-11.13229 -1.75392,-0.3666 -3.67267,-0.0826 -5.27859,-0.89759 -3.94123,-2.00695 -2.8877,-8.25979 -5.37089,-12.00153 -2.68526,-4.04924 -8.94341,-4.29628 -11.39576,-8.50504 -1.91996,-3.29757 -0.81499,-8.02019 -3.32267,-10.86707 -0.96979,-1.09444 -2.33592,-1.72926 -3.34823,-2.77845 -3.05272,-3.17778 -1.71027,-8.42492 -0.64946,-12.76564 1.06074,-4.33603 0.8334,-10.26048 -3.27424,-11.67238 11.44681,-15.70147 4.93606,-19.47964 4.85677,-22.92261 -0.0554,-2.4873 2.48267,-4.03848 3.97795,-5.98791 2.34175,-3.05137 2.12744,-7.33009 2.37253,-11.20954 0.24567,-3.88558 1.61901,-8.404 5.22266,-9.53808 1.93757,-0.61277 4.12684,-0.0693 5.98959,-0.88596 4.4149,-1.93669 3.70912,-9.5061 7.87253,-11.96769 1.89405,-1.11322 4.27858,-0.8158 6.31434,-1.61399 5.38271,-2.10797 6.23486,-10.67086 11.66582,-12.64544 2.72245,-0.99366 5.83667,0.0378 8.57674,-0.91809 3.70912,-1.28455 5.39621,-5.57517 7.842,-8.73417 3.43874,-4.43 6.98235,-2.00045 11.46309,-1.91713 4.80095,0.0826 8.42963,-3.12721 13.13223,-3.49448 z M 90.4385,181.35356 c 28.0347,31.01244 45.79569,35.36714 65.48713,35.02623 -24.6453,8.03603 -52.03666,7.49211 -78.704761,5.79024 -0.943813,-0.0642 -1.121452,1.35449 -0.202285,1.54989 28.151126,5.89223 56.726486,10.46928 84.760686,4.88652 -2.15044,2.68281 -0.34198,6.5509 -8.94959,10.66515 -13.76366,6.57483 -20.43953,-0.91883 -36.04195,-0.5001 -15.33914,0.41689 -32.418764,5.32192 -48.247671,13.82273 -16.061822,-4.46195 -25.332027,-19.039 -49.982847,-26.20313 11.200299,-24.15706 36.784033,-42.72758 71.881105,-45.03748 z m 345.94192,8.40537 c 13.12009,2.56913 29.99186,5.39176 47.18886,12.48644 -7.33442,18.96852 -21.0847,34.70939 -38.31695,43.82278 -14.49216,-12.21495 -40.86128,-19.73364 -59.06867,-20.06856 21.67671,-9.63375 40.11888,-24.40625 50.19676,-36.24066 z m -51.52097,43.73251 c 6.61189,0.0326 12.90166,0.8049 19.10273,2.31788 44.05442,10.77085 34.23289,21.50633 68.76446,41.37895 -18.26576,20.86076 -35.94678,30.05113 -59.02307,30.7088 -6.84122,0.19561 -14.64517,1.3104 -21.30865,0.18401 -1.74237,-0.29145 -4.967,-4.26666 -6.42024,-5.44952 -23.40643,-18.99298 -34.96255,-20.18377 -51.02976,-27.65165 6.54041,-0.56283 14.05003,2.58262 20.62859,3.31713 13.77546,1.5316 30.31628,0.69008 42.50347,-1.09514 1.37974,-0.20263 13.04563,-1.38023 13.19973,-2.74036 0.092,-0.84805 -4.69641,-0.56474 -5.43859,-0.58903 -25.25754,-0.81723 -51.36787,-5.81007 -73.54229,-18.54419 0.49643,-1.37988 0.44834,-3.10763 -0.38604,-4.51942 0.91349,-0.77798 1.72294,-2.15829 1.97444,-3.77177 8.54533,-6.59453 19.87502,-9.48069 29.94127,-11.42531 7.4884,-1.44596 14.42225,-2.15314 21.03398,-2.12036 z M 116.97791,246.2833 c 15.13074,-0.41147 29.43263,7.53768 42.39819,15.68965 0.092,0.19723 0.19706,0.39312 0.31323,0.58852 -27.53189,2.20977 -54.00421,11.09608 -76.846594,25.29178 -0.778378,0.48715 -0.171706,1.71545 0.674439,1.36043 24.485385,-10.35365 50.891195,-14.54271 76.318905,-12.53206 0.11734,3.17745 2.56342,6.03944 4.76427,7.318 -19.59895,23.01788 -48.67142,37.89195 -78.575655,40.01851 -14.989347,1.08861 -22.952908,-0.66491 -37.219075,-6.94982 -7.301118,-3.2149 -17.147417,-1.56327 -23.381836,-3.63994 2.758573,-7.27168 4.628791,-14.17001 8.625769,-20.53679 16.411195,-26.11925 52.692939,-45.78479 82.928437,-46.60826 z m 207.29255,38.67138 c 26.61379,3.40517 52.82824,16.32884 72.15071,37.44945 17.748,19.392 11.19484,33.93082 21.51334,47.78367 2.7708,3.71006 6.10594,6.02571 13.21761,11.45699 -21.93613,4.69566 -36.14731,9.1319 -56.9537,3.44251 -23.61504,-6.43641 -45.28728,-20.54469 -61.03603,-39.71496 -4.74509,-5.7842 -6.71342,-12.55774 -8.13527,-19.01237 -0.9625,-4.38061 -1.78361,-8.92455 -0.60691,-12.36688 2.72175,0 4.50546,-2.65898 3.75194,-5.19015 -0.0316,-0.1082 -0.0316,-0.40496 0.22006,-0.76584 0.75357,-1.08915 2.37843,-1.08915 3.25573,-1.11495 20.26718,24.15841 40.61626,41.45656 69.23962,52.89317 0.80919,0.32337 1.34857,-0.86731 0.58765,-1.31034 -30.70818,-17.74585 -46.77052,-39.96859 -61.78431,-64.26531 1.50316,-2.58273 2.35497,-5.53877 2.48852,-8.54435 0.68207,-0.28541 1.37993,-0.53251 2.09088,-0.74064 z M 160.00342,299.7291 c 0.5653,0.0429 1.02198,0.75963 0.56253,1.33868 -13.94711,17.5008 -32.08204,31.77895 -50.25222,44.81729 -0.54557,0.39311 -0.0554,1.26461 0.54593,0.96776 23.51066,-11.63285 46.42633,-24.5444 64.89256,-43.57528 0.15237,0.20775 0.42266,0.55667 0.68027,0.87333 -11.85116,35.60638 -50.87211,58.27213 -63.26182,61.56293 -8.67458,2.29182 -20.163599,1.06344 -37.697186,9.83555 -0.790713,-15.68331 3.727527,-31.44959 12.739675,-44.17694 26.146531,-2.25383 51.607061,-13.64002 71.218741,-31.42976 0.18269,-0.16648 0.38288,-0.22773 0.57155,-0.21343 z m 23.26433,13.16903 c -3.52586,15.20213 -13.59773,27.36058 -37.24981,51.71444 -26.75324,27.53771 15.89143,-8.76023 30.85482,-24.65778 4.59252,-4.88019 10.14131,-9.00706 15.333,-13.27205 -3.87373,6.94316 -23.25859,24.08176 -33.80925,42.05077 -6.03378,10.27224 -12.91783,23.99341 -12.91783,36.3784 -9.07281,9.13309 -21.7022,14.98169 -33.1109,21.20881 -7.93329,4.33004 -16.614158,8.33579 -27.06049,8.72222 -1.115519,-4.11432 -3.151146,-11.72205 -4.162935,-16.02455 -2.562429,-10.93066 -0.698562,-27.43067 7.178963,-40.72222 20.929232,-7.03155 24.241102,1.08232 52.815882,-18.94911 27.34774,-19.1701 32.77393,-35.44879 42.12855,-46.44893 z m 25.797,15.88503 c 0.76139,0.28543 1.48995,0.45633 2.12166,0.60206 1.48943,0.32175 3.54359,0.90411 5.59124,1.63811 -4.84352,27.09476 -20.17089,51.72917 -36.33647,74.66509 -0.55051,0.78553 0.49071,1.68905 1.14589,1.00111 20.0543,-21.14063 39.01624,-43.77249 48.34023,-71.70874 0.61261,-0.14597 1.19599,-0.44503 1.6867,-0.88005 0.69778,-0.27953 1.58679,0.42331 2.12749,0.96143 3.40772,12.36099 6.22846,24.44271 4.42594,36.29052 -3.22446,21.17716 -17.52766,40.87384 -28.96126,53.67131 -17.01795,19.04456 -38.68436,30.00574 -60.1165,30.59423 7.73605,-26.47437 -0.94452,-42.91743 6.78024,-64.15759 9.63691,-26.50031 28.96741,-49.23969 53.19484,-62.67743 z m 67.2167,0.10711 c 20.37155,30.512 23.67538,71.42426 9.60643,104.29118 -4.49399,10.50573 -10.40452,20.56301 -13.78147,31.94259 -25.69261,-21.24642 -31.69543,-40.96215 -33.1604,-71.42425 9.39182,-21.10086 8.43533,-35.63207 2.85005,-56.80317 0.89444,-0.55605 2.23757,-0.53852 2.9676,0.0958 l 4.26625,3.71414 1.42375,-5.02503 c 1.65383,2.22215 4.21738,2.80295 6.09376,2.10077 -2.22578,22.53084 -0.0562,46.98183 7.34966,70.93095 0.28803,0.9295 1.6424,0.6145 1.50101,-0.35467 -3.91042,-27.3023 -1.37191,-52.7025 6.4568,-77.65745 1.2751,-0.27901 2.04822,0.0429 2.64172,0.46122 z m 26.37308,13.55125 c 7.19703,14.73417 34.09347,39.62598 67.90222,49.40546 3.00999,7.92239 4.60997,13.73367 8.52776,22.2899 3.81246,8.33582 4.32842,10.63984 3.61747,24.50008 -15.48541,3.64612 -28.61212,3.13949 -41.25382,-1.5694 -6.03738,-2.25995 -11.86261,-6.85972 -17.48926,-11.31604 -7.06345,-5.58264 -15.68856,-12.11341 -23.26608,-19.59476 2.48899,-19.03844 0.41742,-38.405 -5.76878,-56.06334 10.07794,17.88569 25.20225,31.62675 41.90252,42.90445 0.62585,0.42496 1.29282,-0.47417 0.73601,-0.99313 -15.22811,-13.99417 -27.90676,-29.76655 -34.90809,-49.56324 z m -70.1711,63.61293 c -0.49023,0.81022 0.47347,4.26051 0.6073,5.24794 1.416,10.3602 4.29853,19.6576 8.53362,28.12045 -12.36519,20.04975 -18.06716,22.83514 -28.39612,35.14514 -4.23663,-4.17838 -9.19033,-10.78477 -9.99226,-12.06935 -3.06056,-4.92433 -4.55012,-11.4949 -5.48173,-17.02618 13.82383,-10.25861 25.57696,-24.15142 34.72922,-39.418 z" />
  <path
     style="display:inline;fill:#085bb9;fill-opacity:1;fill-rule:nonzero;stroke:none;stroke-width:0.0497156"
     d="m 253.65901,158.32766 c -4.70257,0.36711 -8.33125,3.57637 -13.1322,3.49451 -4.48026,-0.0836 -8.02435,-2.51288 -11.46308,1.9171 -2.44532,3.1569 -4.13335,7.44962 -7.84201,8.73417 -2.74007,0.95573 -5.85429,-0.0755 -8.57674,0.9181 -5.43046,1.9746 -6.28314,10.53746 -11.66582,12.64543 -2.03528,0.79819 -4.42028,0.50072 -6.31434,1.61399 -4.1634,2.46159 -3.45763,10.03103 -7.87253,11.9677 -1.86274,0.81723 -4.05202,0.27361 -5.98959,0.88598 -3.60364,1.13408 -4.97701,5.65247 -5.22265,9.53805 -0.24515,3.87948 -0.0316,8.1588 -2.37254,11.20955 -1.49528,1.94945 -4.03372,3.49904 -3.97795,5.98793 0.0789,3.44297 6.58947,7.22165 -4.85593,22.92261 4.10664,1.4119 4.33415,7.33635 3.27341,11.67238 -1.06082,4.34072 -2.40327,9.58783 0.64945,12.76561 1.01231,1.04919 2.37847,1.68455 3.34823,2.77848 2.50765,2.84687 1.40272,7.56947 3.32267,10.86707 2.45235,4.20873 8.7105,4.45577 11.39576,8.50502 2.48319,3.74122 1.42967,9.99457 5.3709,12.00155 1.60591,0.8158 3.52513,0.53099 5.27858,0.89758 6.14797,1.27857 8.86519,9.82956 15.00809,11.13227 3.01015,0.64604 6.24741,-0.66425 9.16441,0.33093 3.74598,1.26483 5.62793,5.80241 9.23304,7.4361 5.8229,2.64492 12.11382,-3.4491 18.45898,-3.01969 4.18034,0.2785 8.17217,3.39254 12.21225,2.27212 4.76866,-1.32861 7.16035,-8.01256 12.09537,-8.32222 3.15104,-0.1967 6.16116,2.43574 9.22122,1.63962 4.70636,-1.22843 4.78785,-8.88108 9.07895,-11.21558 2.83769,-1.54414 6.63857,-0.2226 9.29349,-2.07656 3.83121,-2.67067 2.00526,-9.00018 4.08234,-13.25818 1.54562,-3.16529 4.99073,-4.69807 7.92161,-6.53868 2.93021,-1.84266 5.82295,-4.96923 5.09439,-8.43068 -0.40538,-1.90499 -1.86405,-3.44921 -2.15177,-5.37978 -0.70557,-4.65133 5.24118,-7.2908 6.98209,-11.6451 2.80904,-7.01209 -6.05694,-15.6835 -1.79519,-21.86694 1.15697,-1.68364 3.06516,-2.65893 4.36507,-4.22848 2.00366,-2.43574 2.18862,-6.28487 0.42315,-8.91058 -1.30056,-1.93065 -3.42815,-3.12719 -4.71499,-5.06385 -5.35876,-8.05637 8.04798,-25.56311 -14.19249,-24.59383 0.0416,-3.30516 0.0316,-6.69768 -1.06652,-9.80533 -1.10334,-3.11364 -3.50744,-5.93027 -6.6578,-6.54445 -3.12606,-0.61277 -6.60219,0.95595 -9.4289,-0.54302 -3.33498,-1.76706 -3.83904,-6.75375 -6.93358,-8.9313 -4.58522,-3.23384 -11.79017,1.52544 -16.08644,-2.10705 -2.33587,-1.98064 -2.6124,-5.57663 -4.39588,-8.09579 -1.90087,-2.67666 -5.35845,-3.80966 -8.56466,-3.55668 z"
     id="path1073" />
  <path
     style="display:inline;fill:#ffd303;fill-opacity:1;stroke-width:0.728692"
     d="m 243.60742,312.57962 c -6.06799,-5.87345 -9.89363,-11.91057 -11.65549,-18.39318 l -1.16776,-4.29645 h -11.38019 -11.38024 v -50.71707 c 0,-27.8944 0.19915,-50.71708 0.44205,-50.71708 1.04712,0 7.63674,5.55316 10.52471,8.8693 3.90004,4.47822 8.0439,12.49841 9.42801,18.24718 0.57606,2.3927 1.7208,10.51413 2.54384,18.04766 0.82302,7.53347 1.67199,14.6135 1.8865,15.73339 0.34671,1.8095 0.17903,2.03606 -1.50696,2.03606 -2.69421,0 -4.48111,1.17436 -5.80325,3.81389 -2.3719,4.73527 0.58299,10.02061 6.02338,10.77395 l 2.88107,0.39903 3.29418,-6.99091 c 1.81181,-3.84502 4.12967,-10.29895 5.15071,-14.34204 2.07752,-8.22641 2.35207,-15.14377 1.7317,-43.63047 -0.3299,-15.1541 -0.29592,-15.63771 1.33835,-19.07461 0.92238,-1.9395 2.01446,-3.74166 2.427,-4.00487 1.16408,-0.74279 3.28075,2.48568 4.52378,6.89996 0.98432,3.49564 1.03693,6.47459 0.41317,23.41944 -1.01806,27.66784 0.32676,37.05288 7.38867,51.56969 l 3.1973,6.57237 2.90851,-0.76219 c 6.1644,-1.61535 8.48438,-8.23494 4.3735,-12.47891 -1.23231,-1.27222 -2.85801,-2.16425 -3.94442,-2.16425 -2.33618,0 -2.3356,0.27626 -0.0416,-19.13986 1.97771,-16.74675 2.84782,-20.35275 6.61964,-27.43324 2.7055,-5.07882 10.10804,-13.27507 13.74156,-15.21483 l 2.21714,-1.18365 v 50.73604 50.7361 H 278.4563 267.13031 l -0.88642,3.42169 c -1.81413,7.00248 -4.58658,11.59753 -10.95528,18.15739 l -6.21448,6.40096 z m 2.27218,-14.73036 -0.20411,-7.58906 -4.12372,-0.22233 c -2.51266,-0.13517 -4.12376,0.0785 -4.12376,0.54732 0,3.0726 6.30413,14.8528 7.94844,14.8528 0.43313,0 0.62841,-2.94765 0.50328,-7.589 z m 9.0347,5.17739 c 2.18094,-2.95205 5.44637,-10.06103 5.45591,-11.87795 0.005,-1.15513 -0.54219,-1.30304 -4.11675,-1.11056 l -4.12371,0.22233 -0.20437,7.58906 c -0.12467,4.62691 0.0711,7.589 0.50119,7.589 0.3881,0 1.50754,-1.08521 2.48755,-2.41161 z m -24.35197,-22.9469 c 0.27024,-2.13786 0.66417,-4.61558 0.87586,-5.50596 0.32941,-1.38682 -0.0416,-1.73755 -2.59081,-2.44618 -3.46803,-0.9641 -8.07942,-4.98739 -9.35211,-8.15947 -0.69511,-1.73247 -1.33641,-2.2132 -2.95252,-2.2132 h -2.06446 v 11.10596 11.10594 h 7.79643 7.79648 z m 15.15826,1.85097 c -0.65183,-2.83168 -2.68098,-5.55488 -5.02131,-6.73882 -2.61214,-1.32149 -3.25882,-0.53315 -3.77172,4.59729 l -0.41793,4.17765 h 4.8397 4.83971 z m 15.17768,-2.46477 c -0.21718,-2.47548 -0.57458,-4.68595 -0.79377,-4.91224 -0.71594,-0.73912 -4.76302,1.42575 -6.20614,3.31981 -0.77551,1.01784 -1.41004,2.80524 -1.41004,3.97194 0,2.10452 0.0366,2.12138 4.40265,2.12138 h 4.40259 z m 22.78698,-6.60505 v -10.73575 l -2.15146,-0.19345 c -1.88731,-0.16972 -2.3142,0.17349 -3.47577,2.79828 -1.4783,3.34031 -5.16659,6.29134 -9.31398,7.45213 -2.0851,0.5836 -2.64251,1.0568 -2.30727,1.95873 0.24305,0.65408 0.63989,3.14306 0.88169,5.53104 l 0.43938,4.34172 7.96366,-0.20803 7.96359,-0.20802 z m -32.65081,-1.0891 c 0.91566,-1.00621 2.74689,-2.19822 4.06945,-2.64883 1.32256,-0.45043 2.40462,-0.88302 2.40462,-0.96091 0,-0.0774 -1.25986,-2.73075 -2.79973,-5.89523 -1.53985,-3.16445 -3.37677,-7.74212 -4.08197,-10.1726 -0.70518,-2.43042 -1.50334,-4.16634 -1.7737,-3.85757 -0.27024,0.30878 -1.06059,2.39389 -1.75614,4.63356 -0.69551,2.23974 -2.48567,6.59657 -3.97809,9.68188 l -2.71341,5.60966 2.33231,0.87069 c 1.28276,0.47908 3.08945,1.70273 4.01494,2.71977 2.07548,2.28075 2.22346,2.2814 4.28172,0.0216 z M 219.5104,252.84051 c 0.49646,-1.23801 2.17362,-3.37366 3.72646,-4.74593 l 2.82336,-2.49491 -1.53776,-13.42746 c -1.56763,-13.68769 -2.95119,-19.35652 -6.06177,-24.83615 -4.05772,-7.14818 -3.9824,-7.55228 -3.9824,21.38066 v 26.37465 h 2.06446 c 1.62382,0 2.25733,-0.48059 2.96765,-2.25086 z m 64.53345,-24.03314 c 0,-16.14479 -0.26344,-26.28404 -0.68275,-26.28404 -0.37556,0 -1.60728,1.41606 -2.73738,3.14675 -3.9922,6.11398 -5.12217,10.2125 -6.98491,25.3346 l -1.78241,14.46964 2.78267,2.59536 c 1.53044,1.42744 3.1822,3.59126 3.67058,4.80852 0.73816,1.83972 1.29684,2.21317 3.31109,2.21317 h 2.42308 z"
     id="path2560" />
  <g
     aria-label="Stand with Ukraine "
     transform="matrix(3.6264803,0,0,3.7439167,-286.68876,-291.63672)"
     id="text2614"
     style="font-weight:300;font-size:42.6667px;line-height:125%;font-family:'Fira Sans';-inkscape-font-specification:'Fira Sans, Light';font-variant-caps:small-caps;letter-spacing:0px;word-spacing:0px;white-space:pre;shape-inside:url(#rect2616);display:inline;stroke-width:1px">
    <path
       d="m 234.50529,127.23725 c -5.12,0 -8.57601,3.02934 -8.57601,7.16801 0,4.224 2.51734,6.22934 8.32001,8.02134 5.20534,1.62133 6.95467,3.072 6.95467,6.61334 0,3.92533 -3.02933,6.18667 -7.12534,6.18667 -3.41333,0 -5.67467,-1.23734 -7.808,-3.11467 l -1.49334,1.62133 c 2.38934,2.26134 5.33334,3.66934 9.34401,3.66934 5.888,0 9.68534,-3.456 9.68534,-8.44801 0,-5.16267 -3.2,-7.04 -8.44801,-8.66134 -5.248,-1.57866 -6.82667,-2.944 -6.82667,-5.93067 0,-3.072 2.47467,-4.94934 6.05867,-4.94934 2.68801,0 4.65067,0.81067 6.82667,2.68801 l 1.49334,-1.62134 c -2.304,-2.048 -4.608,-3.24267 -8.40534,-3.24267 z"
       id="path2781" />
    <path
       d="m 264.24396,132.95459 h -17.49335 v 2.13334 h 7.42401 v 21.84535 h 2.47467 v -21.84535 h 7.296 z"
       id="path2783" />
    <path
       d="m 280.49996,156.93328 h 2.60267 l -8.36268,-23.97869 h -3.02933 l -8.44801,23.97869 h 2.51734 l 2.176,-6.40001 h 10.41067 z m -11.86134,-8.44801 4.52267,-13.48268 4.52267,13.48268 z"
       id="path2785" />
    <path
       d="m 305.41728,132.95459 h -2.30401 v 13.82401 c 0,3.37067 0.21334,6.57067 0.34134,7.76534 L 291.8066,132.95459 h -3.24267 v 23.97869 h 2.304 v -12.62935 c 0,-4.608 -0.17066,-6.86934 -0.34133,-8.91734 l 11.56267,21.54669 h 3.32801 z"
       id="path2787" />
    <path
       d="m 320.13731,132.95459 h -5.248 v 23.97869 h 5.58934 c 5.248,0 11.47734,-2.21867 11.47734,-12.16001 0,-9.85601 -5.93067,-11.81868 -11.81868,-11.81868 z m 0.256,2.048 c 4.35201,0 8.96001,1.23734 8.96001,9.77068 0,8.36267 -4.39467,10.15467 -8.70401,10.15467 h -3.28533 v -19.92535 z"
       id="path2789" />
    <path
       d="m 375.85998,132.95459 h -2.38934 l -4.69333,21.76002 -5.50401,-21.76002 h -2.73067 l -5.41867,21.71735 -4.65067,-21.71735 h -2.51733 l 5.46134,23.97869 h 3.072 l 5.41867,-21.16269 5.33334,21.16269 h 3.11466 z"
       id="path2791" />
    <path
       d="m 384.35069,132.95459 h -2.47467 v 23.97869 h 2.47467 z"
       id="path2793" />
    <path
       d="m 407.22006,132.95459 h -17.49334 v 2.13334 h 7.424 v 21.84535 h 2.47467 v -21.84535 h 7.29601 z"
       id="path2795" />
    <path
       d="m 429.19338,132.95459 h -2.47467 v 10.32534 h -11.86134 v -10.32534 h -2.47467 v 23.97869 h 2.47467 V 145.3706 h 11.86134 v 11.56268 h 2.47467 z"
       id="path2797" />
    <path
       d="m 469.34269,127.70659 h -2.60266 v 19.88268 c 0,4.69334 -2.09067,7.59467 -6.99734,7.59467 -4.90667,0 -7.04001,-2.85867 -7.04001,-7.59467 v -19.88268 h -2.56 v 20.09601 c 0,5.63201 3.11467,9.60001 9.60001,9.60001 6.4,0 9.6,-3.968 9.6,-9.60001 z"
       id="path2799" />
    <path
       d="m 480.86271,132.95459 h -2.47467 v 23.97869 h 2.47467 z m 13.35468,0 h -2.816 l -10.41068,11.13601 10.83734,12.84268 h 3.02934 L 483.89205,143.9626 Z"
       id="path2801" />
    <path
       d="m 513.37474,156.93328 h 2.98667 L 509.4494,145.8826 c 3.54134,-0.93867 5.54667,-2.77334 5.54667,-6.31467 0,-4.30934 -2.98667,-6.61334 -9.088,-6.61334 h -6.31468 v 23.97869 h 2.47467 v -10.58135 h 4.90667 z m -11.30668,-12.54401 v -9.42934 h 3.71201 c 4.736,0 6.61333,1.536 6.61333,4.608 0,3.41333 -2.21866,4.82134 -6.31467,4.82134 z"
       id="path2803" />
    <path
       d="m 535.68945,156.93328 h 2.60267 l -8.36267,-23.97869 h -3.02934 l -8.448,23.97869 h 2.51733 l 2.176,-6.40001 h 10.41068 z m -11.86134,-8.44801 4.52267,-13.48268 4.52267,13.48268 z"
       id="path2805" />
    <path
       d="m 546.22807,132.95459 h -2.47467 v 23.97869 h 2.47467 z"
       id="path2807" />
    <path
       d="m 572.55346,132.95459 h -2.304 v 13.82401 c 0,3.37067 0.21333,6.57067 0.34133,7.76534 l -11.64801,-21.58935 h -3.24267 v 23.97869 h 2.30401 v -12.62935 c 0,-4.608 -0.17067,-6.86934 -0.34134,-8.91734 l 11.56268,21.54669 h 3.328 z"
       id="path2809" />
    <path
       d="m 595.0815,132.95459 h -13.05601 v 23.97869 h 13.26935 v -2.00534 h -10.79468 v -9.42934 h 8.91734 v -2.00533 h -8.91734 v -8.49068 h 10.28268 z"
       id="path2811" />
  </g>
</svg>
