<?xml version="1.0" encoding="UTF-8" standalone="no"?>
<!-- Created with Inkscape (http://www.inkscape.org/) -->

<svg
   width="150.66824mm"
   height="46.741558mm"
   viewBox="0 0 150.66824 46.741558"
   version="1.1"
   id="svg1449"
   inkscape:version="1.2 (dc2aedaf03, 2022-05-15)"
   sodipodi:docname="logo-f0.svg"
   xmlns:inkscape="http://www.inkscape.org/namespaces/inkscape"
   xmlns:sodipodi="http://sodipodi.sourceforge.net/DTD/sodipodi-0.dtd"
   xmlns="http://www.w3.org/2000/svg"
   xmlns:svg="http://www.w3.org/2000/svg">
  <sodipodi:namedview
     id="namedview1451"
     pagecolor="#ffffff"
     bordercolor="#666666"
     borderopacity="1.0"
     inkscape:showpageshadow="2"
     inkscape:pageopacity="0.0"
     inkscape:pagecheckerboard="0"
     inkscape:deskcolor="#d1d1d1"
     inkscape:document-units="mm"
     showgrid="false"
     inkscape:zoom="0.99276681"
     inkscape:cx="297.14934"
     inkscape:cy="5.0364295"
     inkscape:window-width="1920"
     inkscape:window-height="986"
     inkscape:window-x="-11"
     inkscape:window-y="-11"
     inkscape:window-maximized="1"
     inkscape:current-layer="layer1" />
  <defs
     id="defs1446">
    <rect
       x="223.11382"
       y="118.35609"
       width="573.64929"
       height="91.15937"
       id="rect2616" />
  </defs>
  <g
     inkscape:label="Layer 1"
     inkscape:groupmode="layer"
     id="layer1"
     style="display:inline"
     transform="translate(-7.103359,-31.710704)">
    <path
       id="path75"
       style="display:inline;fill:#000000;fill-opacity:1;fill-rule:nonzero;stroke:none;stroke-width:0.00495349"
       d="m 25.979642,31.71071 c 0.1893,1.86794 -0.321537,2.430191 -1.178667,4.398684 -1.48379,-1.970969 -2.942395,-2.181021 -5.477699,-2.570859 -0.140229,0.38092 -0.413375,1.055113 -0.493473,2.051242 -0.09307,1.154633 0.185015,3.671035 0.484109,4.723137 0.129084,0.45225 0.275553,0.820811 0.698827,1.9378 -2.702828,-1.366153 -4.1167,-0.65387 -5.639131,-1.151696 -0.536255,-0.175848 -0.656055,-0.180784 -1.892377,-0.533471 l -0.02359,0.462646 c -0.0447,0.873725 0.169454,2.782173 0.217252,3.080673 0.2712,1.6745 1.014139,2.605588 2.103939,3.8642 -3.790793,0.426995 -6.4590031,2.576856 -7.5153205,5.214611 L 7.103359,53.587929 c 0.5486511,0.124779 1.4914303,0.302344 2.6433384,0.968192 0.8434716,0.488563 1.6521516,1.157534 2.5862196,1.567133 -1.378438,0.853376 -2.5210892,1.924629 -3.2652005,3.071654 -0.5231906,0.806798 -0.6485842,1.485179 -1.181695,2.717233 0.473537,0.34071 0.6181611,0.492725 1.8836179,0.562172 0.4065296,0.02168 0.8273166,0.0447 1.1215006,0.170148 1.457243,0.621782 2.245526,0.773379 3.362668,0.766502 -0.901768,1.460307 -1.28412,3.215515 -1.055071,4.922206 l 0.07257,0.541811 c 0.504008,-0.287329 0.601396,-0.346929 0.850306,-0.47096 -0.44437,1.043895 -0.672131,2.543978 -0.383545,3.733727 0.137758,0.568602 0.425749,1.593728 0.584609,2.154913 0.810573,-0.02916 0.728646,-0.0254 0.765251,-0.02794 1.501923,-0.149645 2.309479,-0.646675 3.455152,-1.23638 0.816118,-0.419546 1.653318,-0.850868 2.385043,-1.419275 0.01002,2.015204 0.174438,2.475136 -0.624343,4.652843 0.53126,0.02428 0.635483,0.03112 0.860221,0.03112 1.614252,0 3.103981,-0.486034 4.428921,-1.292847 0.110511,0.539441 0.284975,1.133261 0.600855,1.626728 0.113486,0.175042 0.884929,1.189086 1.465875,1.608044 l 0.301013,0.21731 c 1.107848,-1.560872 1.714965,-1.593957 3.154722,-3.773503 0.556127,0.8552 1.271824,1.619766 2.136335,2.321774 0.09798,0.0794 1.030825,0.543757 1.030825,0.543757 0.585977,-2.590031 1.671345,-3.308756 2.246787,-5.97747 0.700672,0.624338 1.445488,1.172978 2.058082,1.642819 0.585829,0.448681 1.249301,0.957663 1.968695,1.217023 2.352759,0.849649 4.239558,0.210433 5.083608,0.103682 0.07256,-0.471019 0.06959,-0.436205 0.08386,-0.708694 0.110956,-2.054333 -0.135929,-1.680761 -1.104921,-4.316019 1.959479,0.364966 3.326746,-0.05143 7.031365,-0.819942 -2.154898,-1.59311 -2.29633,-1.673139 -2.516757,-1.959296 -0.904854,-1.176685 -0.246906,-2.699859 -2.337988,-4.857672 0.261937,-0.0042 0.520094,-0.01999 0.76401,-0.03484 1.782645,-0.110526 4.147896,-0.01495 7.119607,-3.322998 0,0 0.238735,-0.295398 0.584487,-0.702553 l -0.436894,-0.204835 c -0.698933,-0.327035 -1.924656,-1.131325 -2.933753,-2.072922 1.898458,-1.050713 3.385042,-2.814038 4.120602,-4.909886 l 0.117413,-0.333277 c -2.107189,-0.840895 -2.837939,-1.009108 -5.199389,-1.457205 1.053847,-1.490821 1.638526,-3.58615 1.590627,-4.893901 l -0.01485,-0.406418 c -1.257318,0.170604 -2.443478,0.355004 -3.584145,0.2246 -1.017878,-0.115468 -1.884366,-0.159465 -2.933785,0.103019 1.398878,-3.05665 -0.153903,-3.123599 1.550325,-6.653902 l -0.486627,-0.08023 c -2.149246,-0.352688 -4.455591,0.231323 -6.213195,1.536566 0.08489,-2.949754 -1.133308,-4.677614 -3.052264,-6.891279 l -0.258226,0.45077 c -0.857825,1.498901 -1.808615,2.071029 -2.63406,2.864577 -0.786295,-0.921348 -1.853317,-1.830794 -3.049757,-2.500008 -0.613914,0.49931 -1.225246,1.071937 -1.69504,1.701026 -0.88759,-1.049123 -1.965587,-1.684203 -3.233626,-2.211232 -0.09677,-0.04014 -0.932796,-0.30315 -0.937101,-0.36309 z m 0.777064,1.08085 c 2.689848,1.118474 4.273683,2.886931 5.228943,8.207896 -0.0032,0.01188 -0.0063,0.02328 -0.0094,0.03468 l 0.01617,0.0042 c 0.173123,0.975641 0.276216,1.984187 -0.0063,2.936887 l -0.02052,0.0027 c 0.0021,0.01426 0.0042,0.02784 0.0063,0.0421 -0.198588,0.642498 -0.564106,1.240081 -0.946517,1.801828 -0.203588,-0.05085 -0.376106,0.04401 -0.51441,0.207915 -0.0219,-0.01113 -0.110506,-0.06961 -0.129079,-0.08135 -0.276359,-2.457682 -0.60086,-4.491321 -1.623059,-6.689659 -0.03855,-0.08271 -0.163319,-0.03817 -0.139693,0.05 0.628081,2.406283 0.546764,4.456232 0.363042,7.058596 -0.143945,0.263836 -0.19914,0.263077 -0.248231,0.279275 -0.234547,0.08063 -0.425798,0.212851 -0.558004,0.453045 -1.927604,-1.544817 -2.61045,-4.035424 -3.049757,-6.453972 -0.42268,-2.326609 -0.242113,-2.997377 0.694537,-4.995069 0.426397,-0.908968 0.865173,-1.844701 0.935908,-2.859153 z m 11.13992,0.23627 c 2.788541,3.360892 2.597932,5.607897 1.340015,10.155674 -0.157673,0.56978 -0.320409,1.159299 -0.628267,1.64905 -0.621215,0.988138 -2.217472,1.982973 -3.272565,2.47511 -0.101147,-0.03908 -0.146453,-0.09678 -0.176224,-0.171877 1.336875,-2.379461 2.018969,-5.055857 2.012134,-7.679827 0,-0.08074 -0.117329,-0.08866 -0.129715,-0.0094 -0.397198,2.594395 -1.473429,5.027343 -3.038012,6.998503 -0.144099,-0.246429 -0.429519,-0.230385 -0.668525,-0.288092 -0.431301,-0.104271 -0.826585,-0.237066 -0.925362,-0.713694 -0.183674,-0.891153 0.632391,-1.227653 0.465525,-3.361963 -0.02116,-0.274423 -0.206165,-0.790578 -0.135377,-1.045183 1.787539,-6.41814 3.154859,-4.971851 5.156373,-8.008294 z m -5.97553,0.453257 c 0.453591,0.287795 1.536625,1.035767 2.467676,2.144855 -0.935361,1.113023 -1.517447,2.478736 -1.959495,3.866183 -0.365545,-1.61184 -0.879998,-3.225223 -1.812836,-4.592856 0.389839,-0.576587 0.995461,-1.145248 1.304655,-1.418182 z m -12.106893,0.878736 c 2.671816,0.414111 3.486773,0.867866 4.667763,2.566395 -0.442451,1.314633 -0.353673,2.347468 -0.08059,3.850828 0.286756,1.5785 0.672693,3.202742 1.448007,4.621598 0.241959,0.44244 0.446157,0.960721 0.73663,1.36839 -0.12656,-0.178021 -0.428926,-0.302795 -0.582733,-0.479629 -0.444376,-0.510852 -0.757287,-1.20523 -1.09551,-1.786176 -0.500874,-0.860794 -1.024733,-1.795021 -1.510009,-2.688067 -0.09486,-0.175201 -0.291083,-0.747823 -0.489772,-0.762684 -0.02778,0.476029 0.324709,0.953229 0.48411,1.386439 1.036445,2.818295 2.005421,3.762352 2.395064,5.558444 -0.272441,-0.509495 -0.663419,-0.911105 -0.974247,-1.384589 -0.798828,-1.218364 -1.670237,-2.241766 -3.066007,-3.277617 -0.142164,-0.105612 -0.668531,-0.350715 -0.726238,-0.502741 -0.773983,-2.042425 -0.875656,-2.290635 -0.99791,-2.71911 -0.275018,-0.966421 -0.544357,-3.400583 -0.458114,-4.461598 0.03478,-0.437886 0.118538,-0.870321 0.249557,-1.289883 z m 25.876998,3.399575 c 0.256094,-0.0037 0.512072,0.0064 0.766512,0.03022 -0.432472,1.078353 -0.550432,2.016583 -0.544924,3.085031 0.0048,0.973881 -0.02232,1.571656 -0.892531,3.29267 -0.07258,0.143999 -0.80429,0.331972 -0.969984,0.407659 -1.003599,0.460627 -1.974336,1.030984 -2.850039,1.710485 -1.893549,1.469082 -2.076061,2.361057 -2.951764,2.984684 0.217903,-1.318148 1.331239,-2.6948 2.112656,-3.741223 0.581513,-0.778273 1.179855,-1.462879 1.788737,-2.061783 0.107934,-0.106057 0.536918,-0.393413 0.49526,-0.551774 -0.05711,-0.0106 -0.08064,0.01739 -0.131608,0.04045 -0.576466,0.258173 -1.136304,0.765171 -1.616675,1.164899 -0.834808,0.695761 -1.593882,1.480158 -2.303912,2.301886 -0.125971,0.145886 -0.266189,0.322715 -0.422669,0.434567 0.314693,-0.61884 0.721922,-1.125308 1.094158,-1.688201 0.348324,-0.52635 0.516404,-1.187882 0.682793,-1.789283 0.311029,-1.124666 0.662174,-2.395621 0.816824,-3.707779 1.335285,-1.20188 3.134536,-1.887637 4.927166,-1.91253 z m -32.499288,3.76959 c 0.316527,0.08322 0.618145,0.160689 0.953293,0.269864 0.96324,0.315339 1.972443,0.222797 2.905271,0.310971 2.797188,0.265044 6.548348,2.834498 8.059687,6.720394 -0.160127,0.131417 -0.19555,0.368694 -0.06958,0.542957 -0.01426,0.08881 -0.224749,0.164496 -0.413327,0.247621 -2.532722,-0.722319 -4.952107,-2.029509 -7.010798,-3.823146 -0.07693,-0.06633 -0.18369,0.03855 -0.117907,0.116757 1.599953,1.915881 3.608996,3.540743 5.894287,4.72547 -0.147063,0.231578 -0.185594,0.405279 -0.198075,0.631205 -1.790492,0.208641 -3.116907,0.03224 -4.155133,-0.549829 -1.848911,-1.037664 -3.436521,-2.866146 -4.469901,-4.151555 -0.640478,-0.79684 -1.011669,-1.616049 -1.167401,-2.577996 -0.03542,-0.22162 -0.186187,-1.565956 -0.210412,-2.462713 z m 38.588557,2.842399 c -0.06157,1.070071 -0.601443,3.046209 -1.788154,4.47428 -0.995519,1.19837 -2.958068,2.704704 -5.190365,3.615793 -1.199176,0.489141 -2.312596,0.572309 -3.610931,0.270697 -0.460627,-0.107388 -0.935908,-0.236472 -1.344304,-0.448681 0.02603,-0.0491 0.08059,-0.111693 0.08252,-0.23899 3.405323,-1.156961 4.581541,-1.973658 6.46587,-3.85604 0.06885,-0.06826 -0.0237,-0.177004 -0.102505,-0.119895 -2.222403,1.605604 -3.406744,2.12827 -6.984002,2.722142 -0.0802,-0.190513 -0.113612,-0.507629 -0.372978,-0.744053 1.277827,-2.5062 3.89396,-4.291258 6.47509,-5.238905 1.254285,-0.458028 2.108361,-0.471013 3.428386,-0.320774 0.993054,0.11348 1.979856,0.01113 2.941373,-0.115574 z m -19.861903,2.028899 c 0.324634,-0.02481 0.674623,0.0863 0.867061,0.348774 0.180556,0.247034 0.208551,0.599663 0.445028,0.793887 0.434991,0.356208 1.164352,-0.110494 1.628546,0.206621 0.313336,0.213535 0.364315,0.702538 0.701939,0.87582 0.286168,0.147047 0.638081,-0.0068 0.954555,0.0534 0.318988,0.06007 0.56232,0.336278 0.674018,0.641607 0.11111,0.304741 0.112282,0.637418 0.107971,0.961527 2.25166,-0.09505 0.894303,1.621691 1.436809,2.411713 0.130277,0.189914 0.345667,0.307249 0.477333,0.496569 0.178716,0.257484 0.15999,0.634937 -0.04284,0.873789 -0.13164,0.153913 -0.324725,0.249552 -0.441905,0.414652 -0.43145,0.606359 0.466119,1.456644 0.181738,2.14431 -0.176245,0.42699 -0.778278,0.68582 -0.706848,1.14194 0.02911,0.189315 0.176823,0.340742 0.21784,0.527549 0.07376,0.33949 -0.219049,0.646034 -0.515741,0.826728 -0.296714,0.180545 -0.645488,0.3308 -0.801962,0.641193 -0.21028,0.4176 -0.0254,1.038232 -0.413285,1.300122 -0.268777,0.181871 -0.653515,0.05222 -0.940849,0.20363 -0.434419,0.22898 -0.442621,0.979358 -0.919127,1.099821 -0.309794,0.07807 -0.614529,-0.180106 -0.933532,-0.160785 -0.499607,0.03038 -0.741736,0.685805 -1.224504,0.816092 -0.409006,0.109869 -0.813081,-0.195476 -1.236333,-0.222808 -0.642365,-0.0421 -1.279194,0.55548 -1.868735,0.296114 -0.364972,-0.160201 -0.555496,-0.605165 -0.934731,-0.729196 -0.295356,-0.09759 -0.623038,0.03091 -0.927779,-0.03245 -0.621936,-0.127748 -0.896975,-0.966272 -1.519378,-1.09165 -0.17756,-0.03595 -0.371811,-0.0081 -0.534388,-0.08802 -0.399001,-0.196806 -0.292345,-0.809968 -0.543736,-1.176891 -0.271847,-0.397076 -0.905405,-0.421301 -1.153674,-0.834018 -0.194373,-0.323367 -0.08251,-0.786475 -0.336378,-1.065644 -0.09818,-0.107324 -0.236482,-0.169575 -0.338966,-0.272462 -0.309051,-0.311617 -0.173144,-0.82616 -0.06575,-1.25182 0.107387,-0.425198 0.08437,-1.00616 -0.331474,-1.144612 1.158843,-1.539716 0.499713,-1.910208 0.491686,-2.247832 -0.0056,-0.24391 0.251338,-0.396021 0.402717,-0.587186 0.237071,-0.299222 0.215375,-0.7188 0.240188,-1.099227 0.02487,-0.381027 0.163903,-0.824109 0.528726,-0.935319 0.196155,-0.06009 0.417792,-0.0068 0.60637,-0.08688 0.446952,-0.189914 0.375502,-0.932186 0.796994,-1.173572 0.191748,-0.109164 0.433151,-0.08 0.639247,-0.158272 0.544929,-0.206711 0.631199,-1.046402 1.181016,-1.240033 0.275612,-0.09744 0.590888,0.0037 0.868286,-0.09003 0.375502,-0.125966 0.546297,-0.546711 0.793902,-0.856488 0.348128,-0.434413 0.706875,-0.196166 1.160493,-0.187995 0.486033,0.0081 0.853392,-0.30666 1.329468,-0.342677 z m -16.524001,2.257959 c 2.838157,3.041135 4.636232,3.468163 6.62974,3.434733 -2.495024,0.788028 -5.268051,0.73469 -7.967856,0.567802 -0.09555,-0.0063 -0.113533,0.132822 -0.02047,0.151984 2.849943,0.577802 5.742834,1.026636 8.580938,0.479183 -0.217703,0.263078 -0.03462,0.642392 -0.906031,1.045841 -1.393396,0.64474 -2.069243,-0.0901 -3.648788,-0.04904 -1.552892,0.04088 -3.281987,0.521876 -4.884463,1.35548 -1.626055,-0.437546 -2.564545,-1.866996 -5.0601256,-2.569523 1.1338865,-2.368883 3.7239126,-4.189942 7.2770466,-4.416456 z m 35.022217,0.824246 c 1.328243,0.251933 3.036294,0.528726 4.777271,1.224441 -0.742515,1.860087 -2.134559,3.403663 -3.879104,4.29734 -1.467147,-1.197819 -4.136683,-1.935117 -5.979952,-1.967958 2.194493,-0.944704 4.061526,-2.39332 5.081785,-3.553823 z m -5.215842,4.288486 c 0.669368,0.0032 1.306129,0.07893 1.933908,0.227294 4.459949,1.056211 3.465644,2.10895 6.961526,4.057693 -1.849175,2.045643 -3.639154,2.946865 -5.975334,3.011359 -0.692586,0.01919 -1.482639,0.1285 -2.15723,0.01803 -0.176394,-0.02858 -0.502847,-0.418396 -0.649968,-0.534389 -2.369604,-1.862484 -3.539513,-1.979256 -5.166113,-2.71157 0.662131,-0.05519 1.422387,0.253258 2.088383,0.325286 1.394588,0.150191 3.069135,0.06767 4.302934,-0.107393 0.139682,-0.01988 1.320704,-0.135346 1.336303,-0.268724 0.0093,-0.08316 -0.475451,-0.05538 -0.550587,-0.05776 -2.557005,-0.08014 -5.200343,-0.569748 -7.445222,-1.818476 0.05026,-0.135314 0.04539,-0.304741 -0.03908,-0.443183 0.09248,-0.07629 0.174427,-0.211647 0.199887,-0.369866 0.865105,-0.64667 2.012092,-0.929694 3.031173,-1.120387 0.758104,-0.141793 1.460069,-0.211139 2.129421,-0.207926 z m -27.119597,1.254392 c 1.531795,-0.04035 2.97968,0.739159 4.292277,1.538555 0.0093,0.01935 0.01994,0.03855 0.03171,0.05771 -2.787252,0.216695 -5.467238,1.088103 -7.779739,2.480157 -0.0788,0.04777 -0.01739,0.168219 0.06828,0.133405 2.478832,-1.015295 5.152084,-1.426082 7.726316,-1.228915 0.01188,0.311586 0.259514,0.592239 0.482322,0.717617 -1.984145,2.257174 -4.927362,3.715748 -7.954786,3.924283 -1.51748,0.106751 -2.323689,-0.0652 -3.767957,-0.68151 -0.739144,-0.31526 -1.735956,-0.153299 -2.3671123,-0.35694 0.2792697,-0.713073 0.468606,-1.389535 0.8732481,-2.013873 1.6614252,-2.5613 5.3344912,-4.489736 8.3954502,-4.570486 z m 20.985732,3.792182 c 2.694307,0.333918 5.348186,1.601235 7.304341,3.67236 1.79676,1.901613 1.133335,3.327314 2.177951,4.685748 0.28051,0.363816 0.61815,0.590892 1.338116,1.123492 -2.220754,0.460467 -3.659456,0.89549 -5.765839,0.337581 -2.390722,-0.631167 -4.58476,-2.01465 -6.179119,-3.894519 -0.480382,-0.567209 -0.679649,-1.231434 -0.823594,-1.864388 -0.09744,-0.429567 -0.180567,-0.875156 -0.06144,-1.212717 0.275542,0 0.45612,-0.260744 0.379834,-0.508955 -0.0032,-0.0106 -0.0032,-0.03971 0.02227,-0.0751 0.07629,-0.106804 0.240788,-0.106804 0.329603,-0.109333 2.051793,2.369015 4.111879,4.065301 7.009631,5.186796 0.08192,0.03171 0.136523,-0.08505 0.05949,-0.128495 -3.108811,-1.740187 -4.734919,-3.919389 -6.254874,-6.301967 0.152174,-0.253268 0.238412,-0.543142 0.251932,-0.837873 0.06905,-0.02799 0.139699,-0.05222 0.211674,-0.07263 z m -16.629947,1.448807 c 0.05723,0.0042 0.103464,0.07449 0.05695,0.131273 -1.411968,1.716158 -3.247899,3.116298 -5.087399,4.394861 -0.05523,0.03855 -0.0056,0.12401 0.05527,0.0949 2.380155,-1.140737 4.700073,-2.406867 6.569545,-4.273068 0.01543,0.02036 0.04279,0.05459 0.06887,0.08564 -1.199781,3.491624 -5.150155,5.714266 -6.404456,6.03697 -0.87819,0.224738 -2.041306,0.104281 -3.816359,0.964491 -0.08005,-1.537934 0.377363,-3.084002 1.289729,-4.332068 2.647003,-0.221016 5.224558,-1.337565 7.209992,-3.082057 0.0185,-0.01633 0.03876,-0.02232 0.05786,-0.02094 z m 2.355219,1.291378 c -0.35695,1.490747 -1.376598,2.683025 -3.771069,5.071207 -2.708426,2.700396 1.608802,-0.859044 3.123657,-2.417985 0.464932,-0.478558 1.026679,-0.883248 1.552271,-1.301479 -0.392166,0.680858 -2.354636,2.361497 -3.422756,4.123571 -0.610844,1.007313 -1.307767,2.352836 -1.307767,3.567329 -0.918506,0.895607 -2.19707,1.46913 -3.352058,2.079773 -0.803145,0.42461 -1.681971,0.817423 -2.739529,0.855317 -0.112933,-0.40346 -0.319014,-1.149486 -0.421444,-1.571396 -0.259413,-1.071879 -0.07072,-2.689901 0.726779,-3.993294 2.118817,-0.689524 2.454103,0.106136 5.346935,-1.858182 2.76861,-1.879853 3.317945,-3.476169 4.264981,-4.554861 z m 2.611617,1.557712 c 0.07708,0.02799 0.150838,0.04475 0.214791,0.05904 0.150785,0.03155 0.358742,0.08866 0.566042,0.160636 -0.490344,2.65696 -2.042048,5.072652 -3.678607,7.321788 -0.05573,0.07703 0.04968,0.165631 0.116009,0.09817 2.030241,-2.073086 3.949897,-4.292406 4.893832,-7.031882 0.06202,-0.01431 0.121078,-0.04364 0.170758,-0.0863 0.07064,-0.02741 0.160642,0.04151 0.21538,0.09428 0.344989,1.212139 0.630552,2.396894 0.448071,3.558711 -0.326437,2.076669 -1.774454,4.008159 -2.931961,5.263102 -1.722849,1.867542 -3.916297,2.942416 -6.08603,3.000124 0.783177,-2.596124 -0.09562,-4.208558 0.686414,-6.291406 0.975615,-2.598666 2.932582,-4.828529 5.385301,-6.146258 z m 6.804835,0.0105 c 2.06236,2.992059 2.39683,7.003987 0.972529,10.226973 -0.454959,1.03021 -1.053327,2.016445 -1.395199,3.132347 -2.601049,-2.083463 -3.208759,-4.01682 -3.357068,-7.003986 0.950801,-2.069187 0.853969,-3.494145 0.288532,-5.570217 0.09055,-0.05453 0.226525,-0.05281 0.30043,0.0094 l 0.431905,0.364214 0.144137,-0.492763 c 0.167428,0.217909 0.426953,0.274864 0.616915,0.206006 -0.225332,2.209413 -0.0057,4.607121 0.744058,6.955612 0.02916,0.09115 0.166272,0.06026 0.151957,-0.03478 -0.395878,-2.677309 -0.138887,-5.168099 0.653669,-7.615225 0.129089,-0.02736 0.207358,0.0042 0.267441,0.04523 z m 2.669938,1.328858 c 0.728608,1.444858 3.451531,3.885793 6.874234,4.844786 0.304725,0.776883 0.466702,1.346748 0.863328,2.185787 0.385963,0.817423 0.438198,1.043359 0.366223,2.402519 -1.5677,0.357544 -2.896612,0.307864 -4.176422,-0.153897 -0.61121,-0.221616 -1.200941,-0.672677 -1.770567,-1.109672 -0.715083,-0.547443 -1.588267,-1.187862 -2.355395,-1.921496 0.25198,-1.866943 0.04226,-3.766061 -0.584015,-5.497669 1.020263,1.753903 2.551406,3.101374 4.242098,4.207287 0.06336,0.04167 0.130881,-0.0465 0.07451,-0.09739 -1.541652,-1.372293 -2.825204,-2.918958 -3.533999,-4.860257 z m -7.103929,6.237995 c -0.04963,0.07945 0.04793,0.417792 0.06148,0.514623 0.143351,1.015937 0.435171,1.927657 0.863922,2.757539 -1.25182,1.966113 -1.829071,2.239253 -2.874747,3.446393 -0.428904,-0.409737 -0.930404,-1.057574 -1.011589,-1.18354 -0.309842,-0.48289 -0.460643,-1.127211 -0.554956,-1.669617 1.399488,-1.005979 2.589343,-2.368331 3.515892,-3.865398 z" />
    <path
       style="display:none;fill:#085bb9;fill-opacity:1;fill-rule:nonzero;stroke:none;stroke-width:0.0181829"
       d="m 98.770545,200.92161 c -3.401107,5.49513 -7.768918,10.49597 -12.905874,14.18883 0.346202,1.99101 0.899751,4.35628 2.037089,6.1287 0.298016,0.46247 2.139058,2.84046 3.713264,4.34446 3.838396,-4.4309 5.957497,-5.43389 10.552416,-12.65076 -1.57365,-3.0461 -2.645014,-6.3931 -3.171217,-10.12218 -0.04982,-0.35544 -0.407876,-1.59739 -0.225678,-1.88905 z"
       id="path1105" />
    <path
       style="display:none;fill:#085bb9;fill-opacity:1;fill-rule:nonzero;stroke:none;stroke-width:0.0181829"
       d="m 115.04652,173.14572 -0.66327,0.81786 c -0.22056,-0.15022 -0.50787,-0.26641 -0.98172,-0.16603 -2.90925,8.98235 -3.8526,18.12608 -2.39943,27.95342 0.0526,0.34896 -0.4507,0.46238 -0.55779,0.12779 -2.75191,-8.62035 -3.55837,-17.42235 -2.73123,-25.53218 -0.69731,0.25276 -1.64995,0.0437 -2.26453,-0.75619 l -0.52909,1.80879 -1.58541,-1.33693 c -0.27129,-0.2284 -0.77041,-0.23473 -1.10279,-0.0347 2.07557,7.62032 2.43081,12.85152 -1.05913,20.44677 0.5444,10.96468 2.77532,18.06207 12.32289,25.7097 1.25472,-4.09598 3.45154,-7.71657 5.12138,-11.49798 5.22805,-11.83035 4.0003,-26.55778 -3.56988,-37.54043 z"
       id="path1103" />
    <path
       style="display:none;fill:#085bb9;fill-opacity:1;fill-rule:nonzero;stroke:none;stroke-width:0.0181829"
       d="m 80.481301,167.38906 c -3.476132,3.95941 -5.493135,9.81954 -15.655574,16.71966 -10.618416,7.21034 -11.849807,4.28982 -19.627149,6.82089 -2.927312,4.78421 -3.619999,10.72371 -2.66781,14.65829 0.375996,1.54853 1.132481,4.28716 1.547024,5.76815 3.881867,-0.13909 7.108031,-1.581 10.056044,-3.13962 4.239519,-2.24133 8.933099,-4.34689 12.304497,-7.63429 0,-4.45807 2.558402,-9.39729 4.800463,-13.0947 3.92077,-6.4679 11.124464,-12.63725 12.563994,-15.13649 -1.92913,1.5352 -3.99133,3.02071 -5.697971,4.77736 -5.560429,5.72226 -21.407648,18.78782 -11.466081,8.87578 8.789087,-8.76602 12.532304,-13.14322 13.842563,-18.61503 z"
       id="path1101" />
    <path
       style="display:none;fill:#085bb9;fill-opacity:1;fill-rule:nonzero;stroke:none;stroke-width:0.0181829"
       d="m 106.18444,159.32945 v 5.40137 c 1.47881,-1.54421 2.45504,-3.4195 2.90596,-5.40137 z"
       id="path1099" />
    <path
       style="display:none;fill:#085bb9;fill-opacity:1;fill-rule:nonzero;stroke:none;stroke-width:0.0181829"
       d="m 100.72118,159.32945 c 0.45093,1.98187 1.42771,3.85716 2.90652,5.40137 v -5.40137 z"
       id="path1097" />
    <path
       style="display:none;fill:#085bb9;fill-opacity:1;fill-rule:nonzero;stroke:none;stroke-width:0.0181829"
       d="m 132.87993,157.3306 c -0.26418,0.0749 -0.52352,0.16388 -0.777,0.26661 -0.0496,1.08187 -0.36619,2.14592 -0.92477,3.07561 5.57916,8.74541 11.54868,16.74523 22.95993,23.13279 0.28274,0.15946 0.0823,0.58806 -0.2184,0.47167 -10.63648,-4.11652 -18.19923,-10.34364 -25.73043,-19.03931 -0.32601,0.009 -0.92986,0.009 -1.20986,0.40134 -0.0933,0.1298 -0.0933,0.23688 -0.0818,0.27565 0.28002,0.91111 -0.38302,1.86825 -1.39428,1.86825 -0.4373,1.2389 -0.13214,2.87472 0.22552,4.45154 0.52839,2.32341 1.25983,4.76179 3.0232,6.84366 5.85226,6.90029 13.90633,11.97889 22.68184,14.29573 7.73158,2.04793 13.01342,0.45107 21.16482,-1.23918 -2.64262,-1.95503 -3.88217,-2.78875 -4.91187,-4.12404 -3.83429,-4.98643 -1.39944,-10.21998 -7.99465,-17.2001 -7.18032,-7.60238 -16.92253,-12.2545 -26.81223,-13.48022 z"
       id="path1095" />
    <path
       style="display:none;fill:#085bb9;fill-opacity:1;fill-rule:nonzero;stroke:none;stroke-width:0.0181829"
       d="m 108.93422,153.59711 -0.25551,0.0573 c -1.45808,0.32855 -2.49427,1.62352 -2.49427,3.11836 h 3.19578 c 4.7e-4,-1.06573 -0.14744,-2.13475 -0.446,-3.1757 z"
       id="path1093" />
    <path
       style="display:none;fill:#085bb9;fill-opacity:1;fill-rule:nonzero;stroke:none;stroke-width:0.0181829"
       d="m 100.87792,153.59711 c -0.2991,1.04095 -0.44655,2.10998 -0.44655,3.17571 h 3.19633 c 0,-1.49484 -1.03646,-2.78982 -2.49483,-3.11837 z"
       id="path1091" />
    <path
       style="display:none;fill:#085bb9;fill-opacity:1;fill-rule:nonzero;stroke:none;stroke-width:0.0181829"
       d="m 116.24968,149.10234 c -0.0845,0.32685 -0.20306,0.6508 -0.35707,0.96587 -0.68113,1.39429 -1.95865,2.40436 -3.47256,2.74435 l -0.98987,0.22273 c 0.33911,1.22928 0.50618,2.4862 0.50509,3.73753 h 5.75452 v -7.67048 z"
       id="path1089" />
    <path
       style="display:none;fill:#085bb9;fill-opacity:1;fill-rule:nonzero;stroke:none;stroke-width:0.0181829"
       d="m 92.122358,149.10234 v 7.67048 h 5.753955 c -4.68e-4,-1.25133 0.166229,-2.50825 0.505091,-3.73753 l -0.989875,-0.22273 c -1.51372,-0.33999 -2.791476,-1.35006 -3.471993,-2.74435 -0.154004,-0.31507 -0.272896,-0.63902 -0.357629,-0.96587 z"
       id="path1087" />
    <path
       style="display:none;fill:#085bb9;fill-opacity:1;fill-rule:nonzero;stroke:none;stroke-width:0.0181829"
       d="m 104.9058,144.04862 c -0.66768,2.42903 -1.64703,4.76061 -2.91365,6.93784 -0.0414,0.072 -0.0802,0.1451 -0.12067,0.21784 1.22654,0.31657 2.27754,1.01641 3.03432,1.95338 0.75731,-0.93697 1.80752,-1.63681 3.03432,-1.95338 -0.0398,-0.0727 -0.0786,-0.14581 -0.12068,-0.21784 -1.26637,-2.17723 -2.24598,-4.50881 -2.91364,-6.93784 z"
       id="path1085" />
    <path
       style="display:none;fill:#085bb9;fill-opacity:1;fill-rule:nonzero;stroke:none;stroke-width:0.0181829"
       d="m 55.847047,143.41053 c -11.235571,0.29641 -24.718979,7.37555 -30.817414,16.777 -1.485282,2.29178 -2.180375,4.77502 -3.205456,7.39239 2.316719,0.74751 5.975911,0.15317 8.689031,1.31023 5.301322,2.26231 8.261062,2.89348 13.831125,2.50163 11.112469,-0.76548 21.916785,-6.11969 29.199853,-14.40497 -0.817866,-0.46022 -1.726829,-1.49043 -1.770467,-2.63417 -9.448946,-0.72358 -19.262381,0.78432 -28.361197,4.51101 -0.314385,0.12778 -0.539916,-0.31442 -0.250629,-0.48969 8.488264,-5.10967 18.326229,-8.30875 28.557286,-9.10399 -0.04308,-0.0703 -0.08199,-0.14074 -0.116358,-0.21183 -4.818019,-2.93436 -10.13316,-5.79562 -15.755774,-5.64761 z"
       id="path1083" />
    <path
       style="display:none;fill:#085bb9;fill-opacity:1;fill-rule:nonzero;stroke:none;stroke-width:0.0181829"
       d="m 117.68979,127.56529 c -1.73373,2.02584 -2.82675,4.521 -3.14076,7.16877 l -1.00715,8.49519 c 1.39782,0.68271 2.34417,1.91969 2.70564,3.3166 h 1.44227 z"
       id="path1081" />
    <path
       style="display:none;fill:#085bb9;fill-opacity:1;fill-rule:nonzero;stroke:none;stroke-width:0.0181829"
       d="m 92.122358,127.56529 v 18.98056 h 1.441707 c 0.361473,-1.39691 1.30756,-2.63389 2.70564,-3.3166 l -1.006667,-8.49519 c -0.314019,-2.64777 -1.40731,-5.14293 -3.14068,-7.16877 z"
       id="path1079" />
    <path
       style="display:none;fill:#085bb9;fill-opacity:1;fill-rule:nonzero;stroke:none;stroke-width:0.0181829"
       d="m 174.5416,123.06415 c -3.74491,4.25988 -10.59879,9.57749 -18.65385,13.0451 6.76595,0.12055 16.56545,2.82717 21.95077,7.22385 6.40356,-3.28026 11.51356,-8.94687 14.23913,-15.77437 -6.39047,-2.55378 -12.66061,-3.56982 -17.53605,-4.49458 z"
       id="path1077" />
    <path
       style="display:none;fill:#085bb9;fill-opacity:1;fill-rule:nonzero;stroke:none;stroke-width:0.0181829"
       d="m 104.9058,118.421 c 1.31461,1.47949 2.00958,3.40777 1.93976,5.3855 l -0.40953,11.57212 c -0.17692,5.01693 1.06869,9.98262 3.5933,14.32206 0.17583,0.30258 0.33585,0.60992 0.48695,0.91993 l 1.34246,-0.30236 c 1.3779,-0.31025 2.24322,-1.67857 1.93321,-3.05567 -0.31003,-1.37739 -1.67839,-2.24316 -3.05567,-1.93316 -0.003,0 -0.006,0 -0.009,0 l 1.28136,-10.88575 c 0.60768,-5.15842 3.67862,-9.7026 8.23808,-12.1896 v 37.07323 h -8.54428 c -0.59705,3.22883 -2.32028,6.24987 -5.05261,8.43175 -0.72034,0.44436 -1.3201,1.06131 -1.74376,1.79499 -0.42365,-0.73368 -1.02262,-1.35063 -1.74375,-1.79499 -2.73209,-2.18188 -4.455316,-5.20292 -5.051893,-8.43175 h -8.544983 v -37.07318 c 4.560009,2.48695 7.63095,7.03113 8.238077,12.18955 l 1.281365,10.88575 c -0.0029,0 -0.006,0 -0.0088,0 -1.377896,-0.31 -2.745951,0.55577 -3.05615,1.93316 -0.31002,1.3771 0.555563,2.74547 1.933205,3.05567 l 1.342465,0.30236 c 0.151282,-0.31001 0.311114,-0.61735 0.486939,-0.91989 2.524865,-4.33948 3.770775,-9.30512 3.593305,-14.3221 L 102.9666,123.8065 c -0.0698,-1.97773 0.62458,-3.90601 1.9392,-5.3855 z"
       id="path1075" />
    <path
       style="display:inline;fill:#085bb9;fill-opacity:1;fill-rule:nonzero;stroke:none;stroke-width:0.00495349"
       d="m 31.918567,46.400286 c -0.476076,0.036 -0.843434,0.350704 -1.329468,0.342677 -0.45357,-0.0082 -0.812365,-0.246418 -1.160492,0.187995 -0.247559,0.309571 -0.418449,0.730522 -0.793903,0.856488 -0.277398,0.09372 -0.592674,-0.0074 -0.868286,0.09003 -0.549764,0.193631 -0.636087,1.033323 -1.181016,1.240034 -0.206048,0.07827 -0.447499,0.0491 -0.639247,0.158271 -0.421492,0.241387 -0.350042,0.983658 -0.796994,1.173572 -0.188578,0.08014 -0.410215,0.02683 -0.60637,0.08688 -0.364823,0.11121 -0.503859,0.554292 -0.528726,0.935319 -0.02481,0.380428 -0.0032,0.800064 -0.240188,1.099227 -0.151379,0.191166 -0.408364,0.343122 -0.402717,0.587186 0.008,0.337625 0.667099,0.708169 -0.491601,2.247832 0.415744,0.138453 0.438776,0.719415 0.331389,1.144613 -0.107393,0.425659 -0.243301,0.940202 0.06575,1.25182 0.102484,0.102886 0.240788,0.16519 0.338966,0.272462 0.253868,0.279169 0.142005,0.742276 0.336378,1.065643 0.248269,0.412717 0.881827,0.436942 1.153674,0.834018 0.251391,0.366871 0.144735,0.980085 0.543736,1.176892 0.162577,0.08 0.356876,0.05207 0.534388,0.08802 0.622403,0.125378 0.89749,0.963903 1.519378,1.09165 0.304741,0.06335 0.632471,-0.06514 0.92778,0.03245 0.379234,0.124031 0.569758,0.568995 0.93473,0.729197 0.589493,0.259365 1.22637,-0.338224 1.868735,-0.296115 0.423205,0.02731 0.827327,0.332678 1.236333,0.222808 0.482768,-0.130287 0.724897,-0.785727 1.224504,-0.816092 0.319003,-0.0193 0.623739,0.238853 0.933532,0.160785 0.476459,-0.120462 0.484709,-0.870894 0.919127,-1.099821 0.287281,-0.151421 0.672072,-0.02184 0.940849,-0.20363 0.387861,-0.26189 0.203005,-0.882575 0.413285,-1.300122 0.156474,-0.310393 0.505248,-0.4607 0.801962,-0.641193 0.296644,-0.180694 0.589498,-0.48729 0.515741,-0.826728 -0.04104,-0.186807 -0.188711,-0.338234 -0.21784,-0.527549 -0.07143,-0.456119 0.530603,-0.71495 0.706848,-1.14194 0.284381,-0.687618 -0.613187,-1.537951 -0.181738,-2.144309 0.117127,-0.165101 0.310308,-0.260739 0.441905,-0.414653 0.202846,-0.238852 0.221572,-0.616305 0.04284,-0.873788 -0.131666,-0.189321 -0.347056,-0.306655 -0.477333,-0.49657 -0.542506,-0.790021 0.814756,-2.506762 -1.436809,-2.411712 0.0042,-0.32411 0.0032,-0.656787 -0.107971,-0.961528 -0.111698,-0.305329 -0.355083,-0.581534 -0.674018,-0.64176 -0.316474,-0.06009 -0.668387,0.09374 -0.954555,-0.05325 C 35.223501,48.452114 35.172469,47.963111 34.859186,47.749576 34.394992,47.43246 33.665583,47.899163 33.23064,47.542955 32.994163,47.34873 32.966168,46.996101 32.785612,46.749068 32.593174,46.48659 32.243138,46.375485 31.918551,46.400293 Z"
       id="path1073" />
    <path
       style="display:none;fill:#085bb9;fill-opacity:1;fill-rule:nonzero;stroke:none;stroke-width:0.0181829"
       d="m 37.899278,93.869005 c 0.08891,3.291574 0.642346,8.226445 0.772356,9.039945 0.571644,3.53086 1.934274,6.53833 4.285217,9.46312 3.79313,4.71824 9.621167,11.43025 16.407773,15.23922 3.810874,2.1364 8.680313,2.78414 15.25236,2.01827 0.04581,-0.82931 0.187252,-1.46692 0.727093,-2.31697 -8.388335,-4.34882 -15.763508,-10.31342 -21.636319,-17.34591 -0.241468,-0.2871 0.150441,-0.67205 0.432798,-0.42859 7.556719,6.58376 16.438156,11.38229 25.734726,14.03373 0.692226,-0.30513 1.464834,-0.58294 1.517201,-0.90895 -0.462386,-0.63968 -0.33218,-1.51066 0.255425,-1.99304 C 76.100383,106.40631 62.330357,96.973814 52.063002,96.001102 48.638983,95.677443 44.934233,96.017116 41.398545,94.859601 40.168341,94.458856 39.061113,94.174478 37.899278,93.869005 Z"
       id="path1071" />
    <path
       style="display:none;fill:#085bb9;fill-opacity:1;fill-rule:nonzero;stroke:none;stroke-width:0.0181829"
       d="m 157.19527,80.031876 c -6.58006,0.09138 -13.18498,2.608781 -18.08628,7.020365 -0.56767,4.816389 -1.85663,9.482082 -2.99833,13.610259 -0.61076,2.20758 -1.22773,4.63587 -2.50579,6.56797 -1.367,2.06603 -2.86176,3.92532 -4.01692,6.19691 0.5744,-0.41057 1.08911,-1.05967 1.55151,-1.59517 2.60633,-3.01635 5.39268,-5.89618 8.45703,-8.4496 1.76312,-1.46711 3.81849,-3.32834 5.93437,-4.276021 0.1871,-0.08473 0.27345,-0.187494 0.4831,-0.148581 0.15292,0.581306 -1.42177,1.636112 -1.81797,2.025412 -2.23503,2.19824 -4.43156,4.7116 -6.56597,7.56824 -2.86835,3.84115 -6.95511,8.89464 -7.75498,13.73301 3.2143,-2.28896 3.88461,-5.56355 10.83512,-10.95595 3.21429,-2.49409 6.77795,-4.5879 10.46171,-6.27873 0.60823,-0.27783 3.29416,-0.96782 3.56056,-1.4964 3.19412,-6.317207 3.29477,-8.511818 3.27623,-12.086495 -0.0202,-3.921786 0.41298,-7.366142 2.00027,-11.3243 -0.93377,-0.0875 -1.8736,-0.123974 -2.81366,-0.110919 z"
       id="path1069" />
    <path
       style="display:none;fill:#085bb9;fill-opacity:1;fill-rule:nonzero;stroke:none;stroke-width:0.0181829"
       d="m 87.691916,61.796292 c -0.259653,3.723602 -1.870269,7.158618 -3.435449,10.495166 -3.43765,7.332646 -4.101002,9.795561 -2.549458,18.335543 1.61239,8.877467 4.119463,18.020339 11.194818,23.690749 0.485301,-0.88168 1.18733,-1.3672 2.048285,-1.66294 0.180199,-0.0594 0.382793,-0.0568 0.911183,-1.02514 0.674398,-9.55225 0.97271,-17.077595 -1.332624,-25.910213 -0.08673,-0.323651 0.371304,-0.487015 0.512763,-0.183613 3.752219,8.069301 4.943378,15.534786 5.957806,24.555896 0.0682,0.0432 0.39345,0.25768 0.47382,0.29861 0.50767,-0.60167 1.14095,-0.94992 1.88827,-0.76314 1.40371,-2.06189 2.74544,-4.25581 3.47439,-6.61406 -0.007,-0.0524 -0.0159,-0.10213 -0.023,-0.1545 l 0.0753,-0.009 c 1.03678,-3.497113 0.65836,-7.199208 0.0229,-10.7805 l -0.0594,-0.01635 c 0.0115,-0.04184 0.023,-0.08368 0.0344,-0.12731 C 103.37953,72.393975 97.565158,65.901742 87.691828,61.796301 Z"
       id="path1063" />
    <path
       id="path79"
       style="display:none;fill:#ffd303;fill-opacity:1;fill-rule:nonzero;stroke:none;stroke-width:0.0181829"
       d="m 128.58352,62.663577 c -7.34701,11.145954 -12.36607,5.837001 -18.92764,29.396253 -0.25984,0.934596 0.4193,2.829251 0.49694,3.836591 0.61251,7.834489 -2.38303,9.069669 -1.70881,12.340869 0.36257,1.74957 1.81356,2.23701 3.39674,2.61976 0.87732,0.21183 1.92503,0.15294 2.45397,1.05752 5.74317,-7.23561 9.6937,-16.166295 11.15172,-25.68962 0.0454,-0.290917 0.47615,-0.261831 0.47615,0.03454 0.0251,9.63188 -2.47869,19.45618 -7.386,28.19056 0.10928,0.27566 0.27559,0.48744 0.64688,0.6309 3.87295,-1.80649 9.73238,-5.4582 12.01269,-9.08546 1.13006,-1.79774 1.72742,-3.9617 2.30618,-6.053212 4.61748,-16.693664 5.31715,-24.941773 -4.91882,-37.278705 z m -21.93454,1.663789 c -1.13496,1.001865 -3.35803,3.089272 -4.78902,5.205756 3.42419,5.020224 5.31259,10.942487 6.65442,16.859124 1.62264,-5.092943 3.75931,-10.10609 7.19277,-14.19171 -3.41764,-4.071148 -7.39315,-6.816756 -9.05817,-7.87317 z M 62.207894,67.55297 c -0.480932,1.540091 -0.788414,3.127446 -0.916058,4.734807 -0.316567,3.894704 0.672098,12.82984 1.681614,16.377308 0.448749,1.572816 0.821977,2.483911 3.66305,9.981111 0.211824,0.558031 2.143967,1.457744 2.665816,1.845414 5.123502,3.80232 8.32219,7.55896 11.254478,12.03124 1.14097,1.73802 2.576141,3.21222 3.576201,5.08244 -1.430267,-6.59301 -4.98712,-10.05833 -8.791635,-20.403518 -0.585122,-1.590206 -1.879026,-3.341872 -1.777023,-5.089237 0.729318,0.05458 1.449611,2.156479 1.797817,2.799604 1.781308,3.278124 3.704244,6.707401 5.542827,9.867151 1.241528,2.13249 2.390128,4.68137 4.021317,6.55656 0.564573,0.64911 1.674481,1.10713 2.139054,1.7606 -1.066242,-1.49644 -1.81579,-3.39891 -2.703963,-5.02299 -2.845978,-5.20825 -4.262636,-11.170361 -5.315241,-16.964635 -1.00242,-5.518423 -1.328283,-9.309671 0.295816,-14.135332 -4.335093,-6.234838 -7.326547,-7.900437 -17.13407,-9.420523 z m 117.339416,36.7497 c -3.52945,0.46513 -7.15174,0.84081 -10.79696,0.42425 -4.84546,-0.55149 -7.98048,-0.50382 -12.58468,1.17748 -9.47462,3.47854 -19.07772,10.03101 -23.76828,19.23059 0.95206,0.86784 1.07471,2.03189 1.3691,2.7312 13.13115,-2.17994 17.47817,-4.09849 25.63636,-9.99223 0.28926,-0.20963 0.62898,0.18954 0.37627,0.44009 -6.91691,6.90972 -11.2344,9.90753 -23.73444,14.15447 -0.007,0.46727 -0.20746,0.69707 -0.30292,0.87728 1.49911,0.77895 3.24375,1.25278 4.93458,1.64698 4.76583,1.10713 8.8529,0.80185 13.25475,-0.99365 8.1942,-3.34437 15.39812,-8.87367 19.0524,-13.2726 4.35609,-5.24206 6.33781,-12.49586 6.56382,-16.42386 z M 104.9058,118.421 c -1.31463,1.47949 -2.00903,3.40777 -1.93921,5.3855 l 0.40897,11.57212 c 0.17746,5.01712 -1.06844,9.98244 -3.593312,14.32206 -0.17583,0.30258 -0.335657,0.60992 -0.486939,0.91993 l -1.342465,-0.30236 c -1.37783,-0.31025 -2.243225,-1.67838 -1.933205,-3.05567 0.310195,-1.37739 1.678249,-2.24316 3.05615,-1.93316 0.0029,0 0.006,0 0.0088,0 L 97.80322,134.44367 c -0.607126,-5.15861 -3.677884,-9.70241 -8.238076,-12.1896 v 37.07323 h 8.545005 c 0.596577,3.22902 2.319621,6.24969 5.051891,8.43175 0.72113,0.44436 1.32009,1.06131 1.74375,1.79499 0.42366,-0.73368 1.02324,-1.35063 1.74376,-1.79499 2.73233,-2.18206 4.45537,-5.20273 5.05261,-8.43175 h 8.54428 v -37.07318 c -4.55965,2.48714 -7.63041,7.03094 -8.23807,12.18955 l -1.28137,10.88575 c 0.003,0 0.006,0 0.009,0 1.37748,-0.31 2.74565,0.55577 3.05567,1.93316 0.31001,1.37729 -0.5553,2.74547 -1.9332,3.05567 l -1.34247,0.30236 c -0.15109,-0.31001 -0.31111,-0.61735 -0.48693,-0.91989 -2.52481,-4.33966 -3.77023,-9.30498 -3.59332,-14.3221 l 0.40953,-11.57212 c 0.0698,-1.97773 -0.62515,-3.90601 -1.93976,-5.3855 z m -58.921192,1.61756 c -13.042584,0.83147 -22.549843,7.51608 -26.71205,16.21161 9.160613,2.57878 12.605528,7.8259 18.574339,9.43201 5.882262,-3.05994 12.229281,-4.82561 17.929532,-4.97559 5.798082,-0.15073 8.278923,2.54664 13.393695,0.1796 3.198661,-1.48063 2.526671,-2.87289 3.325808,-3.83857 -10.417921,2.00954 -21.036898,0.362 -31.498279,-1.75896 -0.341654,-0.0703 -0.275655,-0.58078 0.07509,-0.55788 9.910257,0.6126 20.089261,0.80838 29.247831,-2.08426 -7.317621,0.12272 -13.917863,-1.44478 -24.335966,-12.60796 z m 46.13775,7.52673 c 1.73337,2.02602 2.826661,4.521 3.14068,7.16877 l 1.006667,8.49519 c -1.39808,0.6829 -2.344167,1.9195 -2.70564,3.3166 h -1.441707 z m 25.567432,0 v 18.98056 h -1.44227 c -0.36147,-1.3971 -1.30762,-2.6337 -2.70564,-3.3166 l 1.00715,-8.49519 c 0.31401,-2.64777 1.40703,-5.14275 3.14076,-7.16877 z m 37.70588,11.24072 c -2.45701,-0.0117 -5.03368,0.24275 -7.81653,0.76324 -3.74076,0.69997 -7.95104,1.73887 -11.12661,4.11262 -0.0935,0.58078 -0.39425,1.07766 -0.73373,1.35768 0.31002,0.50818 0.32803,1.13012 0.14347,1.62681 8.24034,4.58374 17.94329,6.38094 27.32936,6.67513 0.2758,0.009 2.05507,-0.0932 2.02105,0.21202 -0.0573,0.4896 -4.39246,0.91336 -4.90519,0.98643 -4.52894,0.64259 -10.67575,0.9455 -15.7949,0.3942 -2.44468,-0.2644 -5.23538,-1.39663 -7.66589,-1.19404 5.97083,2.68813 10.26576,3.11672 18.96339,9.95343 0.54005,0.42578 1.73836,1.85666 2.38587,1.96159 2.47624,0.40546 5.3763,0.005 7.91859,-0.0662 8.57548,-0.23674 15.14601,-3.54489 21.93382,-11.05389 -12.83242,-7.15328 -9.1826,-11.01761 -25.55385,-14.89467 -2.30441,-0.5446 -4.64179,-0.8226 -7.09885,-0.83433 z m -50.48987,5.24261 c 0.66766,2.42903 1.64708,4.76061 2.91364,6.93784 0.042,0.072 0.0808,0.1451 0.12068,0.21784 -1.2268,0.31657 -2.27701,1.01641 -3.03432,1.95338 -0.75678,-0.93697 -1.80759,-1.63681 -3.03432,-1.95338 0.0406,-0.0727 0.0792,-0.14581 0.12067,-0.21784 1.26662,-2.17723 2.24597,-4.50881 2.91365,-6.93784 z m -12.783442,5.05372 h 1.439549 c 0.08473,0.32705 0.203625,0.6508 0.357629,0.96587 0.6807,1.39429 1.958273,2.40436 3.471993,2.74435 l 0.989875,0.22273 c -0.339045,1.22946 -0.505639,2.4862 -0.505091,3.73753 h -5.753955 z m 24.127322,0 h 1.44011 v 7.67048 h -5.75452 c 8.4e-4,-1.25133 -0.16598,-2.50807 -0.50509,-3.73753 l 0.98987,-0.22273 c 1.51391,-0.33999 2.79143,-1.35006 3.47256,-2.74435 0.15401,-0.31507 0.27252,-0.63882 0.35707,-0.96587 z m -15.37176,4.49477 0.25495,0.0573 c 1.45856,0.32855 2.49483,1.62352 2.49483,3.11836 h -3.19633 c 0,-1.06573 0.14745,-2.13475 0.44655,-3.1757 z m 8.0563,0 c 0.29856,1.04095 0.44655,2.10998 0.446,3.17571 h -3.19578 c 0,-1.49484 1.03619,-2.78982 2.49427,-3.11837 z m -8.21304,5.73234 h 2.90652 v 5.40137 c -1.47881,-1.54439 -2.45559,-3.41931 -2.90652,-5.40137 z m 5.46326,0 h 2.90596 c -0.45092,1.98206 -1.42715,3.85698 -2.90596,5.40137 z m -34.348508,3.31932 c -0.07002,-0.005 -0.144529,0.0169 -0.212397,0.0769 -7.287986,6.40356 -16.749466,10.5021 -26.465901,11.3134 -3.34906,4.5813 -5.028079,10.25649 -4.734249,15.90184 6.515753,-3.1576 10.785217,-2.71544 14.008824,-3.54039 4.604201,-1.18456 19.104924,-9.34327 23.508991,-22.16007 -0.09564,-0.11398 -0.19606,-0.23961 -0.252787,-0.31436 -6.862326,6.85036 -15.378094,11.49792 -24.115005,15.68526 -0.223289,0.10686 -0.405628,-0.20691 -0.202888,-0.34835 6.752316,-4.69332 13.491502,-9.83278 18.674457,-16.13234 0.170739,-0.20842 9.22e-4,-0.4668 -0.209045,-0.48186 z M 90.067834,173.107 c -9.003288,4.83702 -16.186747,13.02225 -19.767974,22.56125 -2.870643,7.64561 0.355203,13.56436 -2.519625,23.09403 7.964504,-0.21183 16.016028,-4.1574 22.340145,-11.01264 4.2489,-4.60655 9.564168,-11.69653 10.76242,-19.31942 0.66985,-4.26472 -0.37838,-8.61363 -1.644748,-13.06306 -0.200922,-0.19368 -0.531305,-0.44662 -0.790592,-0.34606 -0.182371,0.15656 -0.39916,0.26421 -0.626803,0.31677 -3.464926,10.05587 -10.511452,18.20239 -17.963926,25.81139 -0.243467,0.24839 -0.630398,-0.0769 -0.425839,-0.35961 6.007363,-8.25595 11.703246,-17.12332 13.503165,-26.87628 -0.760947,-0.26421 -1.524301,-0.47383 -2.07779,-0.58965 -0.234743,-0.0524 -0.505508,-0.11399 -0.788433,-0.21672 z m 34.779306,4.9166 c 2.60179,7.12598 7.31334,12.80337 12.97233,17.84068 0.20692,0.18672 -0.0409,0.51039 -0.27351,0.35749 -6.20609,-4.05951 -11.82648,-9.00572 -15.5716,-15.44381 2.29886,6.35625 3.06873,13.32741 2.14377,20.18044 2.81591,2.69245 6.02113,5.04378 8.64601,7.05328 2.09096,1.60409 4.25569,3.25981 6.49927,4.07331 4.69783,1.69499 9.57586,1.87736 15.3305,0.56492 0.2642,-4.98911 0.0724,-5.81846 -1.34431,-8.81899 -1.45589,-3.07993 -2.05047,-5.1717 -3.16904,-8.02342 -12.56382,-3.52021 -22.5589,-12.48023 -25.23342,-17.7839 z" />
    <path
       style="fill:#ffd303;fill-opacity:1;stroke-width:0.0726047"
       d="M 30.900971,61.526502 C 30.286664,60.95054 29.899365,60.358529 29.720999,59.722834 l -0.11822,-0.421317 H 28.45068 27.298576 v -4.973405 c 0,-2.735372 0.02015,-4.973405 0.04475,-4.973405 0.106009,0 0.773124,0.544552 1.065495,0.869738 0.394828,0.439142 0.814343,1.225617 0.954465,1.789352 0.05832,0.234632 0.17421,1.031032 0.257532,1.769783 0.08332,0.738746 0.169268,1.433028 0.190985,1.542845 0.0351,0.177443 0.01813,0.199659 -0.152561,0.199659 -0.272754,0 -0.453655,0.115161 -0.587505,0.373996 -0.240125,0.464349 0.05902,0.98264 0.609789,1.056514 l 0.291671,0.03913 0.333494,-0.68554 c 0.183425,-0.37705 0.418078,-1.009935 0.521446,-1.406406 0.210322,-0.806697 0.238116,-1.485026 0.175313,-4.278481 -0.0334,-1.486038 -0.02996,-1.53346 0.135488,-1.87049 0.09338,-0.19019 0.203939,-0.366913 0.245703,-0.392723 0.117849,-0.07284 0.332136,0.243751 0.457975,0.676621 0.09965,0.342789 0.104976,0.63491 0.04183,2.296553 -0.103067,2.713155 0.03308,3.63347 0.748008,5.057013 l 0.323685,0.644496 0.294449,-0.07474 c 0.624068,-0.158404 0.858938,-0.807534 0.442764,-1.223703 -0.124757,-0.124757 -0.289338,-0.21223 -0.399324,-0.21223 -0.236509,0 -0.23645,0.02709 -0.0042,-1.87689 0.200217,-1.642215 0.288305,-1.995825 0.670153,-2.69015 0.273899,-0.498038 1.023312,-1.301776 1.391158,-1.491993 l 0.224457,-0.116072 v 4.975266 4.975271 h -1.146611 -1.146611 l -0.08974,0.335535 c -0.183658,0.686675 -0.464332,1.137275 -1.109083,1.780546 l -0.629136,0.627689 z M 31.131,60.082016 31.110322,59.33782 30.692849,59.316028 c -0.254376,-0.01326 -0.417478,0.0077 -0.417478,0.05367 0,0.301305 0.638213,1.45649 0.804677,1.45649 0.04385,0 0.06362,-0.289052 0.05095,-0.744191 z m 0.914647,0.507703 c 0.220793,-0.289481 0.551376,-0.9866 0.552341,-1.164771 5.3e-4,-0.113273 -0.05489,-0.127779 -0.416768,-0.108904 l -0.417473,0.02179 -0.02068,0.744196 c -0.01262,0.453723 0.0072,0.744191 0.05074,0.744191 0.03929,0 0.15262,-0.106418 0.251832,-0.236488 z M 29.58032,58.339507 c 0.02736,-0.209643 0.06724,-0.45261 0.08867,-0.539924 0.03335,-0.135992 -0.0042,-0.170387 -0.262287,-0.239876 -0.351092,-0.09454 -0.817937,-0.489071 -0.946782,-0.800132 -0.07037,-0.169889 -0.135293,-0.217029 -0.298904,-0.217029 h -0.209001 v 1.089068 1.089068 h 0.78929 0.789295 z m 1.534583,0.18151 c -0.06599,-0.277679 -0.271417,-0.544722 -0.508345,-0.660821 -0.264445,-0.129587 -0.329915,-0.05228 -0.381838,0.450818 l -0.04231,0.409668 h 0.489957 0.489958 z m 1.536546,-0.241699 c -0.022,-0.242749 -0.05817,-0.459513 -0.08036,-0.481702 -0.07248,-0.07248 -0.482195,0.13981 -0.628293,0.325546 -0.07851,0.09981 -0.142748,0.275086 -0.142748,0.389494 0,0.206372 0.0037,0.208026 0.445712,0.208026 h 0.445707 z m 2.306891,-0.647704 v -1.052765 l -0.217808,-0.01898 c -0.191065,-0.01665 -0.234282,0.01702 -0.351876,0.274407 -0.149661,0.327556 -0.523053,0.616937 -0.942923,0.730766 -0.21109,0.05723 -0.26752,0.103634 -0.233582,0.192078 0.0246,0.06414 0.06478,0.308213 0.08926,0.542384 l 0.04448,0.425755 0.80622,-0.02041 0.806214,-0.02041 z m -3.30548,-0.106799 c 0.0927,-0.09867 0.278088,-0.215561 0.41198,-0.259748 0.133893,-0.04417 0.243439,-0.08659 0.243439,-0.09423 0,-0.0076 -0.127546,-0.26778 -0.283437,-0.578094 -0.155891,-0.310313 -0.341856,-0.759206 -0.413248,-0.997544 -0.07139,-0.238332 -0.152195,-0.40856 -0.179564,-0.37828 -0.02736,0.03028 -0.107372,0.234748 -0.177789,0.454375 -0.07041,0.219632 -0.251641,0.646872 -0.402728,0.949423 l -0.274699,0.550093 0.236116,0.08538 c 0.129863,0.04698 0.312768,0.166973 0.406461,0.266704 0.210115,0.223657 0.225098,0.22372 0.433469,0.0021 z M 28.461454,55.66838 c 0.05026,-0.121401 0.220051,-0.330826 0.377257,-0.465393 L 29.124539,54.95833 28.96886,53.641612 c -0.158701,-1.342241 -0.29877,-1.898134 -0.613675,-2.435476 -0.410793,-0.700964 -0.403168,-0.740591 -0.403168,2.096622 v 2.586347 h 0.209001 c 0.16439,0 0.228524,-0.04713 0.300436,-0.220725 z m 6.533189,-2.35673 c 0,-1.583188 -0.02667,-2.577461 -0.06912,-2.577461 -0.03802,0 -0.162715,0.138861 -0.277123,0.308575 -0.404159,0.59955 -0.518556,1.001457 -0.707134,2.484356 l -0.180445,1.418919 0.281708,0.254504 c 0.154937,0.13998 0.322158,0.352168 0.3716,0.471533 0.07473,0.180408 0.13129,0.217029 0.335207,0.217029 h 0.245304 z"
       id="path2560" />
    <g
       aria-label="Stand with Ukraine "
       transform="matrix(0.26458333,0,0,0.26458333,0.26651101,15.324385)"
       id="text2614"
       style="font-weight:300;font-size:42.6667px;line-height:125%;font-family:'Fira Sans';-inkscape-font-specification:'Fira Sans, Light';font-variant-caps:small-caps;letter-spacing:0px;word-spacing:0px;white-space:pre;shape-inside:url(#rect2616);display:inline;stroke-width:1px">
      <path
         d="m 234.50529,127.23725 c -5.12,0 -8.57601,3.02934 -8.57601,7.16801 0,4.224 2.51734,6.22934 8.32001,8.02134 5.20534,1.62133 6.95467,3.072 6.95467,6.61334 0,3.92533 -3.02933,6.18667 -7.12534,6.18667 -3.41333,0 -5.67467,-1.23734 -7.808,-3.11467 l -1.49334,1.62133 c 2.38934,2.26134 5.33334,3.66934 9.34401,3.66934 5.888,0 9.68534,-3.456 9.68534,-8.44801 0,-5.16267 -3.2,-7.04 -8.44801,-8.66134 -5.248,-1.57866 -6.82667,-2.944 -6.82667,-5.93067 0,-3.072 2.47467,-4.94934 6.05867,-4.94934 2.68801,0 4.65067,0.81067 6.82667,2.68801 l 1.49334,-1.62134 c -2.304,-2.048 -4.608,-3.24267 -8.40534,-3.24267 z"
         id="path2781" />
      <path
         d="m 264.24396,132.95459 h -17.49335 v 2.13334 h 7.42401 v 21.84535 h 2.47467 v -21.84535 h 7.296 z"
         id="path2783" />
      <path
         d="m 280.49996,156.93328 h 2.60267 l -8.36268,-23.97869 h -3.02933 l -8.44801,23.97869 h 2.51734 l 2.176,-6.40001 h 10.41067 z m -11.86134,-8.44801 4.52267,-13.48268 4.52267,13.48268 z"
         id="path2785" />
      <path
         d="m 305.41728,132.95459 h -2.30401 v 13.82401 c 0,3.37067 0.21334,6.57067 0.34134,7.76534 L 291.8066,132.95459 h -3.24267 v 23.97869 h 2.304 v -12.62935 c 0,-4.608 -0.17066,-6.86934 -0.34133,-8.91734 l 11.56267,21.54669 h 3.32801 z"
         id="path2787" />
      <path
         d="m 320.13731,132.95459 h -5.248 v 23.97869 h 5.58934 c 5.248,0 11.47734,-2.21867 11.47734,-12.16001 0,-9.85601 -5.93067,-11.81868 -11.81868,-11.81868 z m 0.256,2.048 c 4.35201,0 8.96001,1.23734 8.96001,9.77068 0,8.36267 -4.39467,10.15467 -8.70401,10.15467 h -3.28533 v -19.92535 z"
         id="path2789" />
      <path
         d="m 375.85998,132.95459 h -2.38934 l -4.69333,21.76002 -5.50401,-21.76002 h -2.73067 l -5.41867,21.71735 -4.65067,-21.71735 h -2.51733 l 5.46134,23.97869 h 3.072 l 5.41867,-21.16269 5.33334,21.16269 h 3.11466 z"
         id="path2791" />
      <path
         d="m 384.35069,132.95459 h -2.47467 v 23.97869 h 2.47467 z"
         id="path2793" />
      <path
         d="m 407.22006,132.95459 h -17.49334 v 2.13334 h 7.424 v 21.84535 h 2.47467 v -21.84535 h 7.29601 z"
         id="path2795" />
      <path
         d="m 429.19338,132.95459 h -2.47467 v 10.32534 h -11.86134 v -10.32534 h -2.47467 v 23.97869 h 2.47467 V 145.3706 h 11.86134 v 11.56268 h 2.47467 z"
         id="path2797" />
      <path
         d="m 469.34269,127.70659 h -2.60266 v 19.88268 c 0,4.69334 -2.09067,7.59467 -6.99734,7.59467 -4.90667,0 -7.04001,-2.85867 -7.04001,-7.59467 v -19.88268 h -2.56 v 20.09601 c 0,5.63201 3.11467,9.60001 9.60001,9.60001 6.4,0 9.6,-3.968 9.6,-9.60001 z"
         id="path2799" />
      <path
         d="m 480.86271,132.95459 h -2.47467 v 23.97869 h 2.47467 z m 13.35468,0 h -2.816 l -10.41068,11.13601 10.83734,12.84268 h 3.02934 L 483.89205,143.9626 Z"
         id="path2801" />
      <path
         d="m 513.37474,156.93328 h 2.98667 L 509.4494,145.8826 c 3.54134,-0.93867 5.54667,-2.77334 5.54667,-6.31467 0,-4.30934 -2.98667,-6.61334 -9.088,-6.61334 h -6.31468 v 23.97869 h 2.47467 v -10.58135 h 4.90667 z m -11.30668,-12.54401 v -9.42934 h 3.71201 c 4.736,0 6.61333,1.536 6.61333,4.608 0,3.41333 -2.21866,4.82134 -6.31467,4.82134 z"
         id="path2803" />
      <path
         d="m 535.68945,156.93328 h 2.60267 l -8.36267,-23.97869 h -3.02934 l -8.448,23.97869 h 2.51733 l 2.176,-6.40001 h 10.41068 z m -11.86134,-8.44801 4.52267,-13.48268 4.52267,13.48268 z"
         id="path2805" />
      <path
         d="m 546.22807,132.95459 h -2.47467 v 23.97869 h 2.47467 z"
         id="path2807" />
      <path
         d="m 572.55346,132.95459 h -2.304 v 13.82401 c 0,3.37067 0.21333,6.57067 0.34133,7.76534 l -11.64801,-21.58935 h -3.24267 v 23.97869 h 2.30401 v -12.62935 c 0,-4.608 -0.17067,-6.86934 -0.34134,-8.91734 l 11.56268,21.54669 h 3.328 z"
         id="path2809" />
      <path
         d="m 595.0815,132.95459 h -13.05601 v 23.97869 h 13.26935 v -2.00534 h -10.79468 v -9.42934 h 8.91734 v -2.00533 h -8.91734 v -8.49068 h 10.28268 z"
         id="path2811" />
    </g>
  </g>
</svg>
